<svg id="a6608f61-c82b-44ba-8dee-9fb836d77060" data-name="Layer 1" xmlns="http://www.w3.org/2000/svg" xmlns:xlink="http://www.w3.org/1999/xlink" width="26.66667in" height="2.51176in" viewBox="0 0 1920 180.84699"><defs><clipPath id="bc5cdbf7-1fa1-4f9c-bfb5-f7fc0da1c509"><rect y="-0.00043" width="1920" height="180.85201" style="fill:none"/></clipPath></defs><title>Footer</title><rect y="-0.00043" width="1920" height="180.85201" style="fill:#121c4e"/><rect x="0.5" y="0.49957" width="1919" height="179.85201" style="fill:none;stroke:#707070"/><g style="clip-path:url(#bc5cdbf7-1fa1-4f9c-bfb5-f7fc0da1c509)"><path d="M1024.49-252.46643c-36.48291,55.24-75,110.419-126.89111,157.5,47.77392,32.928,83.93506,75.041,116.061,118.137,31.292,42.252,59.48706,86.015,85.511,130.452-8.437,5-19.04395,8.227-25.24512,15.325-39.814,40.249-74.17212,83.455-107.387,127.268h62.678q13.46594-18.336,27.3999-36.439c39.853-50.842,82.1001-102.707,143.07105-139.049-7.60792,1.077-14.75293,3.738-22.36792,4.636-32.543-41.367-67.3501-82.3-112.3689-115.715,12.25,5.718,22.8811,13.457,35.427,18.858-20.46484-30.79193-43.6748-60.42193-67.658-89.52991,2.1919-1.023,4.343-2.09,6.47-3.181.675-.346,1.33789-.707,2.00708-1.06q2.18884-1.155,4.33911-2.352,1.10889-.621,2.20606-1.255,2.06616-1.191,4.09106-2.423c.68091-.414,1.365-.824,2.041-1.244q2.38514-1.48608,4.71509-3.027c.384-.254.77807-.5,1.15991-.754q2.892-1.93194,5.7-3.941c.511-.365,1.012-.74,1.52-1.108q2.05407-1.49,4.07495-3.011c.645-.488,1.283-.981,1.9231-1.475q1.823-1.407,3.61694-2.841c.626-.5,1.25293-1,1.874-1.507q1.927-1.569,3.81812-3.168c.46509-.392.936-.779,1.3999-1.173q3.09228-2.64,6.1001-5.347.705-.633,1.3999-1.271,2.76123-2.508,5.46289-5.057c.19995-.186.3999-.37.594-.556q2.94433-2.794,5.813-5.631.68189-.672,1.36011-1.346,2.85023-2.83,5.647-5.681c35.8479-37.92,64.50806-79.749,91.57593-121.961,54.978-87.764,102.146-178.477,155.40723-266.886,30.8667-50.336,62.60547-100.636,103.30859-146.436.80908-.913,1.63281-1.82,2.45215-2.729h-26.20605q-4.99293,5.221-9.79981,10.513c-39.915,45.487-72.24707,94.893-102.24292,144.906-67.16919,110.41-123.00537,225.31-198.49536,332.41-36.916,49.178-76.33594,102.3-141.91992,129.8,74.28589,44.225,122.60791,109.4,167.074,172.954-8.717,2.694-17.07593,6.609-25.94995,8.656-44.688-67.844-90.53491-137-158.67309-191.964,4.1499,1.631,8.64306,7.428,12.751,2.443,48.00611-32.525,81.811-75.774,113.062-118.9,81.613-117.563,141.635-243.631,217.856-363.35,28.78491-44.222,58.89233-88.339,97.75024-127.469h-31.35009q-5.49316,5.25-10.6919,10.646c-48.93017,51.052-85.6582,108.626-120.917,166.184-58.991,96.966-110.5249,196.853-174.30005,291.94-32.22095,46.728-66.73608,93.344-114.19995,131.324-9.395-5.071-18.029-11.126-26.53589-17.1,39.3999-34.117,70.30005-73.747,98.48609-114.17,72.491-104.955,129.0559-216.305,197.69995-322.818,27.22094-41.944,55.8999-83.513,91.05591-121.588,7.783-8.223,15.99389-16.475,24.72412-24.416h-39.062c-36.988,32.61-65.739,70.446-93.125,108.47C1142.50321-452.38643,1088.39506-350.44244,1024.49-252.46643Z" style="fill:#26366d"/><path d="M1092.4019-166.62942c-31.251,43.124-65.05713,86.372-113.062,118.9-4.10791,4.985-8.60009-.812-12.751-2.443,68.13281,54.957,113.98,124.11694,158.668,191.957,8.875-2.047,17.23291-5.963,25.95019-8.656-44.46484-63.552-92.78808-128.729-167.074-172.954,65.58423-27.5,105.00024-80.62,141.92016-129.8,75.49024-107.1,131.32618-221.991,198.5-332.406,30-50.013,62.32911-99.419,102.24414-144.906q4.81128-5.284,9.79981-10.513H1408.002c-38.85693,39.128-68.96289,83.247-97.749,127.466C1234.03276-410.26044,1174.00981-284.19244,1092.4019-166.62942Z" style="fill:#121c4e"/><path d="M574.268-158.20447c-30.355-29.561-65.287-57.30908-108.5-74.572-39.61-16.51294-86.74-20.82788-130.161-12.7229-.974.40894-4.093.03711-1.77-.644,13.515-3.88208,29.927-4.21607,42.419-8.5481-22.856-8.50805-48.059-13.8999-73.407-12.42309-45.736,3.7771-82.454,32.063-102.694,63.457,36.165-12.562,73.42-24.781,113.177-27.44092,58.728-5.781,117.105,13.866,160.874,44.31811C550.698-134.16248,602.128-63.14246,650.748,6.5365c64.145,94.835,119.97,193.01611,179.572,289.677h45.012C819.6,202.63342,767.68,107.58142,708.75,15.2384,669.624-45.19055,627.934-105.15051,574.268-158.20447Z" style="fill:#121c4e"/><path d="M266.587-170.98743c54.14,5.18994,102.752,28.6001,141.9,58.052,51.038,37.418,90.734,83.45288,128.067,129.752,70.788,90.342,129.786,186.05005,193.974,279.3999H782.41c-57.66-88.3081-110.861-178.49-171.835-265.406-35-48.98608-71.75195-97.5371-117.01-140.977-36.718-35.022-79.847-68.10009-133.942-84.89209-66.22705-21.88208-140.41394-7.8479-202.681,15.946-54.217,20.12109-104.854,45.52612-156.65406,69.219v11.023c37.259-17.22,74.736-34.137,114.049-48.20605C161.962-163.89563,214.12089-175.90662,266.587-170.98743Z" style="fill:#121c4e"/><path d="M186.24089-80.73938c64.364,7.90991,119.366,39.406,164.661,75.292,53.509,42.94507,96.947,93.00806,138.413,143.512,42.238,52.011,81.643,105.45,122.509,158.14917h62.129c-42.278-58.021-82.355-117.14209-125.645-174.64307-43.29394-57.86011-88.985-115.10693-145.8-165.156-36.545-32.02295-79.665-60.865-130.89306-76.33593-48.917-14.856-103.651-13.146-153.208-1.07593-41.345,10.22094-80.156,25.12109-118.12,41.46509v28.42358C58.18888-72.56433,121.857-88.50842,186.24089-80.73938Z" style="fill:#121c4e"/><path d="M250.78593,273.05994q14.00005,11.41479,27.561,23.15478h99.941c-27.82995-27.99121-56.171-55.63916-86.436-82-42.827-36.93017-89.282-72.313-145.022-96.52685A333.818,333.818,0,0,0,.284,89.663v64.11817a334.18337,334.18337,0,0,1,72.071,14.86181C141.602,190.9408,199.02092,230.97253,250.78593,273.05994Z" style="fill:#121c4e"/><path d="M152.86491,42.80286c54.392,17,99.876,47.62011,140.98,80.0791,64.181,53.273,117.848,113.32715,171.61707,173.3291h77.207c-35.05-42.24414-69.423-84.85889-105.87305-126.33594-46.87-52.07812-95.755-104.16015-158.286-144.95312-52.8-35.23194-120.628-58.49512-190.46594-53.73291C57.753-26.83093,28.613-21.1781.283-13.35583V33.881c7.731-1.251,15.52-2.334,23.4-3.15478C67.11393,25.61145,112.12089,29.67151,152.86491,42.80286Z" style="fill:#121c4e"/><path d="M1357.03788-508.27943c-53.2622,88.409-100.43017,179.121-155.4082,266.886-27.06689,42.212-55.728,84.041-91.57617,121.961q-2.79052,2.853-5.647,5.681-.68043.674-1.36084,1.346-2.87476,2.833-5.812,5.631c-.20019.186-.3999.37-.59423.556q-2.69971,2.55-5.4629,5.057-.70018.636-1.3999,1.271-3.00806,2.7-6.1001,5.347c-.10009.084-.19189.171-.29.254-.36524.31-.74219.61-1.10791.919q-1.89332,1.6-3.81788,3.168c-.62109.505-1.248,1.006-1.874,1.507q-1.793,1.434-3.61816,2.841c-.63916.493-1.27784.987-1.92188,1.475q-2.01708,1.525-4.07519,3.011c-.50782.368-1.00879.743-1.521,1.108q-2.814,2.006-5.70019,3.941c-.38282.256-.77588.5-1.16114.754q-2.33276,1.53809-4.71484,3.027c-.67481.42-1.35986.83-2.041,1.244q-2.02661,1.231-4.09082,2.423-1.1001.632-2.20508,1.255-2.146,1.20007-4.33886,2.352c-.66895.353-1.332.713-2.00684,1.06-2.127,1.091-4.27881,2.158-6.47021,3.181,23.98193,29.105,47.19189,58.739,67.65478,89.528-12.54492-5.4-23.17676-13.14-35.42676-18.858,45.01905,33.417,79.82618,74.348,112.36914,115.715,7.61622-.9,14.76123-3.559,22.36915-4.636-60.97706,36.342-103.21778,88.207-143.07081,139.049q-13.97973,18.081-27.3999,36.439h56.45313c1.28613-1.8,2.55908-3.6,3.85107-5.4,41.30518-55.959,83.3999-113.76,146.56885-155.86,19.75391-12.024,41.95312-24.391,67.63086-25.084-7.34815-5.329-17.98779-7.573-26.49512-11.746-13.0542-3.17-26.44922-8.439-39.3501-10a326.15547,326.15547,0,0,1,41.72608,22.826c-10.24414.013-23.96485,5.579-31.165-2.621a321.03133,321.03133,0,0,0-53.58594-35.213c7.99219,4.279,3.48584.085,2.01318-1.578-35.22021-55.226-70.7832-110.505-109.98-163.968,2.33887-1.44,4.62891-2.923,6.89991-4.417,1.23388-.81,2.45019-1.636,3.667-2.461,1.394-.946,2.78418-1.894,4.15381-2.859,1.20019-.842,2.377-1.7,3.55615-2.553q2.02221-1.47,4.01807-2.963,1.74828-1.315,3.46484-2.653,1.95044-1.51209,3.87109-3.046,1.69995-1.36,3.37012-2.739,1.8999-1.56207,3.75977-3.146,1.64135-1.394,3.25976-2.805,1.84058-1.607,3.65088-3.237,1.58935-1.428,3.15918-2.869,1.79957-1.654,3.56006-3.331c1.023-.969,2.04492-1.939,3.0542-2.918q1.75341-1.7,3.4751-3.421c.98779-.984,1.978-1.968,2.9541-2.96,1.14013-1.159,2.26416-2.328,3.3872-3.5.958-1,1.917-1.994,2.8628-3,1.12011-1.191,2.22412-2.392,3.32715-3.593.91992-1,1.84521-2,2.7539-3.009,1.105-1.225,2.19385-2.46,3.28418-3.7.88086-1,1.769-1.994,2.64014-3,1.1001-1.267,2.1831-2.544,3.26709-3.82.83789-.985,1.6831-1.967,2.51221-2.957,1.10009-1.315,2.18505-2.638,3.272-3.96.792-.963,1.58984-1.921,2.374-2.887,1.126-1.388,2.23389-2.784,3.34619-4.179.72315-.907,1.45508-1.811,2.1709-2.721,1.2461-1.581,2.47412-3.168,3.7002-4.755.563-.726,1.13379-1.45,1.69189-2.177q2.6748-3.483,5.29981-6.98c96.374-131.317,159.145-276.249,252.53222-408.83,13.14014-18.083,26.78907-36.246,41.8169-53.574h-24.2002c-.81885.909-1.64306,1.816-2.45215,2.729C1419.64286-608.91543,1387.90116-558.61543,1357.03788-508.27943ZM1227.931,115.89255c-8.3999,1.056-16.63379,2.965-25,3.956-26.94385-30.657-56.28076-60.35-91.88086-84.912C1156.802,54.57254,1197.72294,82.47556,1227.931,115.89255Z" style="fill:#121c4e"/><path d="M27.831-126.12045c-11.333-78.412-10.034-159.868,22.439-235.193,16.981-37.653,42.95605-76.091,87.714-96.576,19.2,11.225,38.958,23.585,55.99194,36.147-42.69995,8.515-75.91894,34.965-96.365,65.269-45.052,67.227-53.33594,146.23-49.957,221.155a113.119,113.119,0,0,0,24.80005-11.687c2.921-48.253,12.261-97.1,35.77295-141.948,13.136-25.618,32.15906-49.9,58.943-67.758,24.922-16.471,58.41-24.306,90.412-20.813,36.536,23.295,72.041,48.211,110.714,69.234-30.11695-13.312-62.00806-26.715-97.26-27.663-41.314-3.163-80.606,15.738-104.646,41.6-35.34,37.27-51.96594,83.513-61.228,129.066-3.828,5.137,1.716,2.932,3.767,2.007,11.5-6.226,24.493-10.644,35.74-17.062,15.61206-38.22,37.373-77.5,79.021-102.017,25.167-14.628,57.952-19.927,88.32495-14.734,34.328,5.533,65.25,19.961,93.395,36.108,15.977,1.419,23.516.505,35.022,2.78,63.29505,3.17,117.15,35.4,158.138,71.895,62.2,55.787,106.692,122.212,149.528,188.161,59.465,95.094,111.812,192.928,166.933,289.639q-2.356,2.37195-4.737,4.726h56.242c33.215-43.813,67.572-87.019,107.387-127.268,6.2-7.1,16.808-10.32,25.245-15.325-26.024-44.437-54.219-88.2-85.511-130.452-32.126-43.1-68.286-85.209-116.061-118.137,51.9-47.078,90.408-102.258,126.891-157.5,63.9-97.976,118.016-199.92,185.3-296.51,27.387-38.024,56.137-75.859,93.125-108.47h-44.242c-15.781,13.839-30.02,28.938-43.425,43.551-97.05,114.546-160.229,244.35-244.994,364.492-30.6,43.955-63.732,87.2-105.351,125.1-2.529,2.218-5.483,4.727-9.531,4.529,34.622,24.807,62.173,55.233,87.417,86.273,50.745,63.651,91.109,132.116,130.616,200.547-8.8,4.939-17.225,10.347-26.086,15.186-49.136-86.457-97.009-174.037-162.474-253.6-24.25-30.445-53.525-58.177-86.48-82.74l-38.44067-21.307c-8.767-3.842-16.511-9.111-25.628-12.479,59.454,37.7,101.869,89.171,139.333,141.248,55.733,79.135,101.226,162.5,146.512,245.671-4.513,8.247-17.665,13.767-25.186,21.05-57.189-103.123-110.809-208.174-183.349-305.261-38.415-50.229-82.25409-100.36-145.32508-132.529,9.782,2.585,18.292,7.431,27.658,10.7,37.246-17.927,66.863-44.183,93.914-71.069,107.683-111.086,176.427-242.221,279.2-355.978-2.364,1.172-4.592,2.5-7.059,3.529q-5.138-9.1-10.3-18.2-.66-1.182-1.331-2.361-1.8-3.177-3.616-6.351h-35.361c.174.311.343.622.517.933q3.74295,6.7,7.437,13.421c1.433,2.6,2.879,5.19,4.3,7.789q5.859,10.68,11.62,21.387c-7.563,6.51-16.738,13.9-26.086,18.056l-123.26,106.481c-25.228,34.913-52.77,68.775-80.717,102.35-34.8,39.8-71.522,79.465-119.119,110.138-26.416,17.006-56.958,30.677-90.441,36.042,31.425,10.347,58.456,27.864,82.157,47.048,44.6,36.831,78.98,80.469,110.7,124.773,68.766,99.194,123.12,204.126,179.921,307.9.624,1.6,2.591,3.678.339,5.038-8.589,7.065-16.3,14.764-24.877,21.849-64.96-115.361-124.637-233.135-202.491-343.535-30.929-42.218-63.93-84.073-106.634-119.359-36.887-31.294-84.731-57.606-139.631-61.489-11.655-1.955-24.927,1.406-35.418-4.028-26.416-11.251-51.454-24.51-75.625-38.554,24.579,10.508,49.38306,21.463,76.736,26.775a205.04612,205.04612,0,0,0,111.733-6.7c15.537-6.53,31.866-11.756,47.634-17.831-18.437,3.384-37.217,6.919-56.3,5.117-57.906-3.024-108.21-29.736-152.548-57.517-94.637-61.119-172.775-137.57-273.134-193.179-41-22.839-87.023-41.18-135.91394-49.812v143.94805a249.16642,249.16642,0,0,1,35.76905-58.518,284.55223,284.55223,0,0,1,48.959,21.763c-29.08105,22.987-47.667,53.043-60.906,83.664a376.44012,376.44012,0,0,0-23.822,87.831v130.981a632.549,632.549,0,0,0,12.109,65.072C18.07792-120.03946,23.29289-123.40042,27.831-126.12045Z" style="fill:#121c4e"/><path d="M1104.189-535.08343c-67.742,95.239-123.95289,195.546-195.739,288.959-27.71606,35.351-57.07788,70.581-94.8269,99.6-5.449-.806-9.8999-5.56-15.25611-7.587,32.95606,24.562,62.23,52.294,86.48,82.74,65.46509,79.564,113.3379,167.144,162.47413,253.6,8.86108-4.84,17.282-10.247,26.08593-15.186-39.50708-68.432-79.87109-136.9-130.616-200.547-25.24512-31.04-52.80005-61.466-87.417-86.273,4.0481.2,7-2.311,9.531-4.529,41.6189-37.9,74.751-81.142,105.35107-125.1,84.76392-120.13806,147.94288-249.94206,244.99292-364.48806,13.405-14.613,27.645-29.712,43.426-43.551H1208.689c-.74292.632-1.489,1.263-2.227,1.9C1166.36112-618.92943,1134.17314-577.30543,1104.189-535.08343Z" style="fill:#26366d"/><path d="M1049.69889-648.73743q5.15808,9.1,10.30005,18.2c2.467-1.026,4.69507-2.357,7.05908-3.529-102.7771,113.757-171.521,244.892-279.19995,355.978-27.051,26.886-56.66894,53.142-93.91406,71.069-9.365-3.272-17.876-8.118-27.658-10.7,63.072,32.172,106.90991,82.3,145.32007,132.529,72.54,97.087,126.15991,202.138,183.34912,305.261,7.521-7.283,20.67407-12.8,25.187-21.05-45.28589-83.169-90.779-166.536-146.512-245.671-37.46509-52.077-79.87988-103.552-139.333-141.248,9.11695,3.368,16.86109,8.637,25.62793,12.479,26.00806-17.4,48.4231-38.071,68.844-59.676,112.092-121.839,180.8-264.949,290.0249-388.286q3.74962-4.015,7.552-8.014,3.68994-3.881,7.45508-7.724l.12207-.126c6.05005-6.186,12.249-12.283,18.69409-18.2h-42.9939a214.85113,214.85113,0,0,1-22.97192,11.388q-3.442-5.69-6.876-11.388h-35.01294q1.8047,3.175,3.60694,6.351Q1049.0291-649.91544,1049.69889-648.73743Z" style="fill:#26366d"/><path d="M1192.65312-195.04144q-2.625,3.5-5.29981,6.98c-.55908.728-1.1289,1.451-1.69189,2.177-1.228,1.587-2.45606,3.175-3.7002,4.755-.71679.91-1.44922,1.814-2.17187,2.721-1.11084,1.395-2.21924,2.79-3.34522,4.179-.7832.966-1.583,1.925-2.374,2.887-1.08594,1.322-2.16992,2.645-3.271,3.96-.8291.99-1.67382,1.971-2.5122,2.957-1.085,1.276-2.167,2.552-3.26807,3.82-.87207,1-1.75879,2-2.64014,3-1.08886,1.235-2.1792,2.47-3.28418,3.7-.90918,1.008-1.834,2.007-2.7539,3.009q-1.65015,1.8-3.32715,3.593c-.9458,1.006-1.90479,2-2.86279,3-1.123,1.171-2.24707,2.34-3.38721,3.5-.97608.993-1.96582,1.976-2.9541,2.96q-1.72632,1.718-3.47412,3.421-1.51466,1.468-3.05518,2.918-1.76733,1.675-3.55908,3.331-1.56738,1.444-3.15918,2.869-1.81275,1.629-3.65186,3.237-1.61792,1.412-3.25879,2.805-1.864,1.58505-3.75976,3.146-1.67358,1.379-3.37012,2.739-1.91822,1.537-3.87109,3.046-1.72193,1.33595-3.46582,2.653-1.98853,1.5-4.01709,2.963c-1.1792.857-2.35987,1.711-3.55616,2.553-1.37109.965-2.76123,1.914-4.1538,2.859-1.21582.826-2.43213,1.651-3.667,2.461-2.2749,1.494-4.56494,2.976-6.8999,4.417,39.2002,53.463,74.76123,108.742,109.98,163.968,4.72315,6.388-.21,1.69-2.0122,1.578a321.0578,321.0578,0,0,1,53.58593,35.213c7.2002,8.2,20.9209,2.634,31.165,2.621a326.15467,326.15467,0,0,0-41.72607-22.826c12.8999,1.565,26.2998,6.834,39.35107,10-6.13476-5.263-9.03613-12.3-13.56494-18.376-43.99512-68.009-85-137.346-130.583-204.629,12.979-10.313,27.06787-21.38,39.22315-32.908,56.84179,85.935,104.22412,175.727,163.752,260.567,2.13184,6.663,10.93213,4.127,16.877,6.075-26.5122,4.107-49.67675-9.514-75.70019-10.729,8.50683,4.173,19.146,6.418,26.49414,11.746-25.67822.693-47.87793,13.06-67.63086,25.084-63.17383,42.1-105.26416,99.9-146.56982,155.86-1.292,1.8-2.564,3.6-3.8501,5.4h50.853c2.354-3.38,4.7002-6.765,7.07618-10.134,28.14209-39.221,57.52-78.217,94.13818-112.816,27.2749-25.626,59.72217-50.1,100.74316-60.324,17.39991-4.794,35.9209-4.173,54.02-4.972-70.6792-94.7-121.49414-197.622-184.26806-295.588-9.80713,5.427-16.70606,15.371-26.33789,21.782,53.8999-55.9,93.46484-119.428,131.73-182.75,44.751-74.674,86.15478-150.667,134.16015-224.087,19.10791-28.652,38.852-57.67,61.75-84.772H1487.014c-15.02784,17.328-28.67676,35.491-41.8169,53.574C1351.79814-471.28943,1289.02714-326.35843,1192.65312-195.04144Z" style="fill:#26366d"/><path d="M409.332-351.35944c44.338,27.781,94.641,54.493,152.548,57.517,19.081,1.8,37.861-1.733,56.3-5.117-15.768,6.074-32.1,11.3-47.634,17.831a205.046,205.046,0,0,1-111.733,6.7c-27.353-5.312-52.156-16.266-76.736-26.775,24.172,14.045,49.21,27.3,75.625,38.554,10.491,5.434,23.76293,2.073,35.418,4.028,54.9,3.882,102.744,30.194,139.631,61.489,42.7,35.286,75.7,77.141,106.634,119.359,77.854,110.4,137.531,228.174,202.488,343.53205,8.577-7.085,16.288-14.784,24.877-21.849,2.253-1.36.285-3.433-.339-5.038-56.8-103.77-111.155-208.7-179.921-307.9-31.717-44.3-66.1-87.943-110.7-124.773-23.7-19.185-50.732-36.7-82.157-47.048,33.483-5.365,64.026-19.036,90.441-36.042,47.6-30.673,84.315-70.336,119.119-110.138,27.946-33.575,55.488-67.438,80.717-102.35-3.985,1.578-8.342,11.383-11.745,5.276-39.182-56.93707-75.214-115.19208-111.496-173.34207h-51.5c43.668,66.621,86.85,133.465,135.717,197.753,1.119,1.6,2.191,3.784.19,5.3-8.206,7.613-16.313,15.322-25.063,22.532-61.981-72.186-114.041-149.155-167.232-225.585h-62.034c63.706,85.255,124.554,172.014,202.194,249.813-8.87,7.514-17.327,15.438-27.167,22.2-66.938-51.8-117.134-115.414-168.131-177.243-25.76-31.277-50.732-63.21-76.4-94.769H442.288c53.353,57.6,102.18,118.033,156.116,175.247,40.789,43.622,84.9,86.131,139.886,118.791-8.623,6.738-17.934,12.866-26.911,19.293-50.448-17.976-90.85-49.286-127.972-81.211-83.329-73.73-151.269-157.615-233.361-232.121h-114.025c14.313,9.515,28.089,19.551,41.431,29.794,91.8,71.819,165.177,157.108,256.90893,228.983,42.2,31.8,90.128,62.994,148.764,71.367-9.063,6.477-20.137,12.479-31.977,14.949-62.165,3.007-117.872-24.41-164.034-54.813-87.4-58.735-157.209-131.892-240.988-193.691-56.99-42.865-123.827-82.835-201.12195-96.588H.28593v63.093c48.892,8.632,94.91894,26.973,135.91406,49.812C236.556-488.92944,314.695-412.47844,409.332-351.35944Z" style="fill:#26366d"/><path d="M1838.54716,258.8114c-26.24609,8-56.63477,5.31006-80.53906-6.25879-37.79-17.9458-64.21924-47.24316-88.13916-75.979.02392-2.667-7.87305-4.85889-4.47315-1.03711,24.06885,32.77588,50.01123,65.65088,85.95313,91.00586,20.61133,14.3999,46.59472,26.25293,74.80566,25.07178,24.415.06494,46.792-9.37012,66.14258-20.47608,16.91992-9.94922,31.93652-21.624,46.01465-34.022V194.7616c-2.86817,2.63916-5.74219,5.27392-8.66211,7.877C1903.25321,224.83142,1875.22489,247.93445,1838.54716,258.8114Z" style="fill:#121c4e"/><path d="M1792.61161,166.19275c-33.24316,19.042-78.53418,26.0542-115.90039,10.458,21.54492,15.147,50.9668,24.78808,80.01074,21.55908,30.48145-2.82617,57.04981-16.76514,80.417-31.81885,36.90039-24.56006,68.48828-53.61816,101.167-81.727V55.9447C1890.35868,93.23474,1848.11747,135.75085,1792.61161,166.19275Z" style="fill:#121c4e"/><path d="M1861.552,181.21472c-29.57226,20.53516-67.4209,39.709-108.42871,34.41992-33.06347-3.9541-58.67383-22.687-81.70019-40.60009,25.78418,28.1748,59.16113,56.856,104.31152,62.70019,38.623,3.856,73.74023-13.456,101.76172-32.749,21.94922-15.43018,41.77246-32.49219,60.81836-50.146V117.9198C1914.03056,140.057,1889.387,161.91,1861.552,181.21472Z" style="fill:#121c4e"/><path d="M1313.62406-348.58642c-38.26513,63.321-77.82617,126.853-131.72607,182.749,9.63281-6.411,16.53076-16.355,26.33789-21.782,62.77393,97.965,113.58984,200.891,184.269,295.588-18.10009.8-36.62207.178-54.02,4.972-41.021,10.228-73.46923,34.7-100.74316,60.324-36.61816,34.6-66,73.595-94.13818,112.816-2.37989,3.369-4.72315,6.754-7.07618,10.134h45.91211c30.07422-44.358,62.7461-87.5,103.0752-126.436,35.36523-33.423,84.3999-65.368,142.44922-62.205-34.437,8.868-64.042,26.933-88.04,48.267-30.13281,25.976-54.68506,55.668-77.57715,85.923-13.352,17.913-26.06006,36.1-38.36914,54.452h37.55713c29.02783-43.8,59.36621-87.366,97.7998-126.422,25.67676-26.814,57.58887-50.334,96.12989-64.721-6.39112-.132-15.39307,4.292-18.668-1.875-79.36817-101.591-130.624-214.889-199.23194-320.963,33.14014-37.27,61.227-77.253,87.2002-117.97,62.7998-97.685,115.21094-199.683,184.83008-294.519,6.86621-9.123,13.8999-18.225,21.21924-27.189h-21.27393c-22.8999,27.1-42.64209,56.12-61.75,84.772C1399.77787-499.25343,1358.37406-423.26143,1313.62406-348.58642Z" style="fill:#121c4e"/><path d="M1750.77861,149.2406c-23.9004,13.23877-51.272,24.15283-80.95215,24.39111.3999.3501,1.20019,1.04883,1.59277,1.40577,31.24609,4.7998,63.90039-.55518,90.64746-14.39991,67.65527-34.22119,115.166-87.81591,176.24414-128.28711V14.12634C1868.388,51.79773,1819.14872,109.69373,1750.77861,149.2406Z" style="fill:#121c4e"/><path d="M1293.08183-273.67444c5.38818-3.863,8.89111-9.049,13.689-13.318,64.71778,102.535,115.46192,210.28,181.14209,312.445q23.0083,35.14106,49.88721,68.557c-12.82324,2.231-21.3999,10.987-31.33789,17.167-60.064,45.368-99.22412,104.648-137.53516,162.344q-7.24365,11.31006-14.2998,22.692h25.563c16.71191-26.844,33.98193-53.46,52.36718-79.622,34.2378-46.4,70.065-94.784,125.58692-126.821-94.41406-123.981-150.26221-263.624-236.27588-391.145,1.94287-2.717,7.76416-16.464,11.7251-8.587,90.84521,125.5,145.72021,265.258,236.66406,390.745,1.69189,2.674,3.854,5.546,8.12012,4.952-50.81885,34.17-86.31494,79.888-119.189,125.382-19.6001,27.96-37.979,56.42-55.834,85.1h20.707c27.70019-44.222,56.48877-87.965,89.33691-129.889,24.26709-30.353,51.125-59.908,85-83.9,6.436-5.593,16.26319-6.794,24.811-9.383,3.98486-1.446.56885,1.519-.7749,2.7-32.52588,22.635-57.94825,50.881-81.5,79.55-36.2129,45.4-67.541,93-98.15088,140.916h16.313c15.68409-23.654,31.36524-47.307,47.55323-70.721,40.22412-56.976,81.05176-115.649,142.853-159.677,7-4.081,15.62793-5.857,23.50684-8.6,3.46484-1.294-.7832,2.285-1.666,2.588-23.48292,15.6-43.23682,34.361-61.5,53.833-52.21094,57.462-93.459,120.522-136.59278,182.58h10.957c33.65576-44.921,65.625-90.68,100.45313-135.046,31.59521-39.656,65.26709-79.373,110.70019-109.792,6.64991-5.243,16.00684-6.933,24.33985-9.779,2-.752,2.55908-.409.916.918-51.124,32.09-87.26513,76.216-122.52881,119.148-36.05615,44.4-68.92285,90.638-105.92822,134.551h153.22412c-14.542-10.441-30.54492-19.4-48.773-25.492-27.63281-9.758-59.4248-4.252-84.25293,8.122,47.15479-52.03,88.32911-107.335,134.8501-159.729,28.6001-31.41,59.25977-62.463,98.874-85.461,7.51709-3.618,15.86719-6,24.17579-8.22-38.06983,22.014-69.252,50.459-97.41407,80.33-42.353,45.143-80.895,92.472-123.11621,137.675,7.43408-3.751,11.97315-14.732,22.36084-11.456,33.72217,10.082,59.83789,31.245,82.65186,52.843q5.84985,5.635,11.49414,11.388h15.728c-9.26221-11.186-18.74414-22.255-28.61719-33.111-18.29981-19.61-37.49317-39-61.0249-54.77-4.6211,3.618-9.04395,7.415-14.07715,10.7,54.60693-53.364,100.77978-112.175,159.88379-162.568,16.56787-13.965,35.47119-25.949,55.085-37.048-9.54688.383-19.333,7.461-28,1.439-62.313-29.251-136.29981-8.788-203.63086-9.277,13.03613,22.634,27.12988,44.886,40.29,67.455-2.64014,2.364-3.58887-1.915-4.85889-3.117-38.43408-62.046-73.91406-125.256-110.24414-188.055,11.23,14.764,30.45605,24.517,49.458,32.03,70.16015,23.586,151.01318,7.085,220.58691,32.9,32.67481,13.041,61.93408,32.288,84.13721,55.358,7.5332-1.638,17.13818-4.187,23.49121-3.5-92.65186,43.652-146.12012,122.456-228.54785,175.827,28.56885,38.08,54.27685,77.621,82.834,115.746h12.29981c-31.66211-38.193-57.894-79.416-85.39991-119.483,84.39209-43.446,135.96192-116.579,218.1001-162.284,11.312-5.216,22.773-13.965,35.67676-13.82-33.43311-39.445-72.2998-78.217-123.148-104.331-63.6831-31.416-142.24219-30.783-208.71289-56.56-44.61523-16.916-74.51709-50.868-92.28076-86.655-10.72705,17.8-21.36719,35.636-31.58985,53.635-2.82177,3.849-.771,8.379-.11914,12.492-2.74023-3.116-7.29394-6.84-4.71484-10.842,23.03076-39.936,47.32178-79.764,78.76318-115.951a10.71711,10.71711,0,0,1,1.4668-1.705c-.5.565-.9751,1.139-1.4668,1.705-4.50586,6.425,3.71387,12.625,7.6792,18.18,24.79981,30.739,62.93311,53.01,104.353,67.639,62.6001,22.324,130.43408,38.788,182.813,75.7,50.50586,36.469,89.33887,81.486,125.87891,127.122V-81.62643q-11.49537-14.273-23.416-28.324c-33.11182-38.488-69-76.336-115.13721-105.467-36.23095-22.614-76.125-40.987-115.937-59.165-44.84619-20.211-90.06885-42.674-121.168-76.269,17.36914-13.9,38.063-27.019,62.53613-31.476,50.25684,37.484,109.27784,66.243,162.02784,101.33,7.2998,4.028,13.91992,8.9,18.458,15.1,26.53614,28.508,53.38477,57.349,87.13184,80.713,13.36816,9.426,28.76123,18.131,45.5,23.61v-16.632c-35.56006-6.867-63.46289-28.611-88.05615-49.281-65.76416-58.679-112.19434-129.418-179.11914-187.328-24.26612-20.294-52.76612-40.2-88.5-45.015-28.854-3.932-56.90821,6.807-78.68994,21.076-60.89991,42.928-98.772,102.261-132.7251,160.184,6.50586,9.049,14.44287,17.431,20.437,26.728,29.292-48.448,61.26123-97.352,107.29981-137.362,21.55175-18.3,47.88183-35.8,80.11914-39.1,30.5708-3.642,59.7998,8.257,82.92382,23.17,41.5,27.045,73.65918,62.043,104.36914,96.734-28.624-26.982-55.22607-56.226-91.646-77.012-28.293-17.6-68.063-26.662-101.96778-14-32.33593,11.231-57.23779,32.545-78.63378,54.361-35.1001,35.351-60.78614,75.84-85.53614,116.164,68.2002,100.429,118.02881,208.094,185.13623,308.939.39991,2.556-5.41211,2.654-7.9541,2.76-65.11816-93.04-112.6001-192.98-170.67578-288.794-20.74219-34.622-43.01709-68.789-69.4668-100.875,10.78516-21.254,24.95313-41.366,36.92481-62.152-13.99121,14.51-25.99219,30.506-41.31006,44.14,83.03613-103.971,140.95947-219.157,221.44531-324.314q3.23438-4.138,6.52686-8.262h-18.627c-.91308,1.154-1.86523,2.289-2.76709,3.448C1452.532-531.75543,1390.99687-394.72343,1293.08183-273.67444Zm129.32519,62.334c30.89991-51.531,64.82178-103.288,115.41016-144.427,21.22217-16.286,46.57812-31.211,76.61084-34.054,20.36377-1.984,42.24609,1.677,59.335,10.773-36.52-12.506-78.3999-1.192-106.91113,18.97-62.8999,42.789-99.71582,103.717-135.02588,162.092C1427.78691-201.96744,1425.344-206.83343,1422.407-211.34042Z" style="fill:#121c4e"/><path d="M1719.69609,41.59753c2-.75293,2.55908-.40918.916.918-51.124,32.08985-87.26416,76.21582-122.52978,119.148-36.05518,44.3999-68.92188,90.63721-105.92823,134.55078h153.2212c-14.542-10.44189-30.54493-19.3999-48.773-25.49316-27.63282-9.75781-59.42481-4.252-84.25293,8.12207,47.15478-52.03076,88.3291-107.335,134.85009-159.729,28.6001-31.41016,59.25879-62.46289,98.874-85.46094,7.51709-3.61817,15.86718-6,24.1748-8.22119Z" style="fill:#121c4e"/><path d="M1537.92265,94.01111c-12.82178,2.231-21.3999,10.98681-31.33789,17.167-60.06494,45.36914-99.22412,104.648-137.53516,162.34424q-7.24365,11.31079-14.2998,22.69189h25.563c16.71093-26.84423,33.98193-53.459,52.36621-79.62109,34.23779-46.3999,70.06494-94.78418,125.58691-126.8208Z" style="fill:#121c4e"/><path d="M1486.88505-112.1676c11.229,14.76391,30.45508,24.51709,49.457,32.03,70.16016,23.58593,151.01319,7.085,220.58692,32.8999,32.67382,13.041,61.9331,32.28809,84.13623,55.35791l36.47607-6.47607L1899.50907.60608C1866.075-38.839,1827.2039-77.611,1776.36015-103.725c-63.68213-31.416-142.24219-30.78295-208.71289-56.56-44.61377-16.916-74.51709-50.86792-92.28076-86.655-10.72705,17.80005-21.36621,35.636-31.58985,53.635-2.82178,3.84912-.771,8.3789-.11914,12.49194l43.228,68.64893" style="fill:#121c4e"/><path d="M1600.18583,202.73157c50.24219-45.1001,93.46094-94.92188,144.28125-139.63623,28.29981-21.53223,55.86914-49.469,96.48-54.95606-22.20019-23.07007-51.46191-42.31689-84.1372-55.35791-69.57422-25.81006-150.42676-9.31006-220.58692-32.8999-19-7.51392-38.22705-17.26611-49.457-32.03,36.33008,62.80005,71.81006,126.009,110.24414,188.05493,1.271,1.2002,2.21924,5.48,4.85986,3.11719-13.16113-22.56885-27.2539-44.8208-40.291-67.45508,67.33008.489,141.31787-19.9729,203.63086,9.2771,8.66406,6.022,18.44922-1.05591,28-1.439-19.6128,11.10009-38.51709,23.08276-55.084,37.04809-59.10009,50.39307-105.27685,109.2002-159.88379,162.56787,5.03321-3.28222,9.457-7.0791,14.07715-10.70019,23.53223,15.77392,42.72412,35.16015,61.02491,54.771,9.87207,10.856,19.354,21.92481,28.61718,33.11084h13.165c-26-34.46777-52.4751-68.69384-83.31006-100.55908C1607.67753,197.71448,1604.07255,200.40149,1600.18583,202.73157Z" style="fill:#26366d"/><path d="M1572.08525,231.97937c-10.38916-3.2749-14.92676,7.70605-22.36182,11.457,42.22217-45.20019,80.76318-92.5332,123.11621-137.67578,28.16113-29.87109,59.34277-58.31592,97.41406-80.33008-8.30908,2.2251-16.65918,4.6001-24.17578,8.22119-39.61377,23-70.27588,54.05078-98.874,85.46094-46.52,52.39307-87.69385,107.7002-134.84912,159.729,24.8291-12.374,56.62011-17.87988,84.25293-8.12207,18.228,6.1001,34.23,15.05079,48.773,25.49317h20.852q-5.65577-5.74731-11.49512-11.38916C1631.92216,263.22742,1605.806,242.06531,1572.08525,231.97937Z" style="fill:#26366d"/><path d="M1812.43193-146.0614c-52.37891-36.916-120.21094-53.37988-182.813-75.69995-41.41992-14.62793-79.54883-36.8999-104.353-67.63892-3.96484-5.55493-12.18506-11.7539-7.6792-18.17993-31.44092,36.187-55.73291,76.01489-78.76416,115.95093-2.5791,4,1.97607,7.72607,4.71582,10.842-.65185-4.113-2.70019-8.64307.11914-12.49194,10.22315-18,20.86279-35.83106,31.58985-53.635,17.76513,35.7871,47.666,69.739,92.28222,86.655,66.47119,25.7771,145.02979,25.14405,208.71192,56.561,50.84423,26.114,89.71484,64.886,123.14892,104.33105-12.8999-.145-24.36621,8.6001-35.67822,13.82007C1781.58036,60.15808,1730.012,133.29089,1645.617,176.73694c27.50782,40.06811,53.74024,81.291,85.39991,119.48389h14.835c-36.72315-37.03711-64.2251-79.84107-92.58008-121.17994,41.07422-14.176,73.7998-39.709,104.92187-64.728,49.13623-38.771,93.354-83.78394,155.63379-109.7649,6.88086.05909,16.88086-1.46,22.542,1.16211C1877.15019,26.358,1834.73124,68.92,1787.2122,105.19617c-36.54492,28.5-75.895,60.01294-127.79492,68.35791,23.5498,36.26294,50.333,71.65405,83.3872,102.978a229.04825,229.04825,0,0,0,23.875,19.688h150.69288c7.31982-4.853,14.28808-10.02,20.936-15.23291v-43.865c-14.0791,12.3999-29.1001,24.073-46.01709,34.022-19.3501,11.106-41.72705,20.541-66.14209,20.47607-28.21,1.18188-54.19287-10.677-74.80517-25.07105-35.9419-25.355-61.88379-58.23-85.95118-91.0061-3.3999-3.823,4.5-1.6311,4.47217,1.03589,23.91895,28.73511,50.34912,58.032,88.13916,75.979,23.8999,11.56812,54.292,14.262,80.53906,6.259,36.67823-10.875,64.707-33.979,91.1001-56.16993,2.91895-2.60009,5.79395-5.238,8.66309-7.87792V154.8385c-19.0459,17.655-38.86914,34.717-60.81885,50.146-28.021,19.293-63.13818,36.605-101.76123,32.75-45.15088-5.844-78.52686-34.52588-104.312-62.69995-.3999-.35694-1.2002-1.05689-1.59278-1.406,29.68018-.238,57.04883-11.15308,80.95215-24.39111,68.3711-39.542,117.60889-97.438,187.53321-135.115V-18.94128C1901.77079-64.57532,1862.93779-109.59241,1812.43193-146.0614Z" style="fill:#26366d"/><path d="M1864.4412,4.642c-6.354-.687-15.958,1.86181-23.49218,3.5-58.45118,28.11377-100.416,72.04883-144.04,112.9541-24.29981,23.46-49.53223,46.2998-76.13379,68.11377,2.0459-.57324,4.76123-3.5,6.18017-.917,28.166,35.24707,53.63282,71.83886,80.1128,107.9209h11.6582c-28.55713-38.124-54.26514-77.666-82.834-115.7461C1718.31913,127.098,1771.78691,48.29382,1864.4412,4.642Z" style="fill:#26366d"/><path d="M1341.25175-324.87543c15.31885-13.635,27.31982-29.631,41.311-44.14-11.97413,20.786-26.14112,40.9-36.92579,62.152,26.45118,32.086,48.7251,66.253,69.46778,100.875,58.08105,95.814,105.5581,195.754,170.6748,288.794,2.542-.106,8.35108-.2,7.9541-2.76-67.10693-100.845-116.936-208.51-185.13623-308.939,24.75-40.324,50.43213-80.812,85.53516-116.164,21.3999-21.816,46.2998-43.13,78.63476-54.361,33.89991-12.658,73.67383-3.592,101.9668,14,36.4209,20.786,63.023,50.03,91.646,77.012-30.71-34.692-62.86621-69.689-104.37012-96.734-23.127-14.913-52.354-26.811-82.92383-23.17-32.23681,3.3-58.56592,20.805-80.11914,39.1-46.042,40.01-78.01123,88.914-107.2998,137.362-5.99414-9.3-13.93213-17.679-20.438-26.728,33.95312-57.923,71.82178-117.256,132.7251-160.184,21.78222-14.269,49.83593-25.008,78.68994-21.076,35.73584,4.817,64.23584,24.721,88.5,45.015,66.9248,57.911,113.355,128.65,179.10791,187.329,24.5918,20.67,52.5,42.413,88.05615,49.281v-23.29c-39.14307-2.089-71.0498-24.553-96.98389-46.4-71.3999-62.766-118.874-140.158-189.4458-203.463-24.97607-21.089-53.814-42.819-91.13476-47.547-22.25293-2.529-45,3.189-63.39405,13.146-12.12207,5.144-17.10009,16.167-27.20019,23.1,52.86816-63.26205,97.22412-130.833,148.74219-194.78h-15.67383c-74.812,93.372-130.16211,196.547-216.61914,283.818,70.84912-89.006,124.8999-185.685,193.70019-275.642q3.17945-4.091,6.41016-8.176h-17.49121q-3.28857,4.125-6.52686,8.262C1482.21073-544.02643,1424.28886-428.84044,1341.25175-324.87543Z" style="fill:#26366d"/><path d="M1324.75907-335.73743c-25.97607,40.717-54.062,80.7-87.20019,117.97,68.60791,106.074,119.86377,219.372,199.23193,320.963,3.27588,6.167,12.27881,1.743,18.66895,1.875-38.542,14.387-70.45313,37.907-96.12989,64.721-38.43115,39.056-68.769,82.626-97.7998,126.422h34.14014q7.04955-10.96994,14.26513-21.873c27.42676-40.892,56.52-81.407,93.21387-117.5,21.708-20.951,46.75488-40.185,76.669-53.469-35.79981-41.842-64.042-87.409-91.147-133.107-41.58593-70.894-80.04394-142.971-122.81006-213.4,4.78223-8.957,15.26514-16.276,21.55616-24.971,49.84082,80.937,92.562,164.5,140.8999,246,25.1001,41.142,50.6792,82.311,83.16406,120.073-11.94824,3.427-21.08887,10.822-31.15576,16.711-47.1001,32.526-80.293,75.326-111.45019,117.874-14.73,20.965-28.72022,42.23-42.28321,63.67h28.03467q7.08179-11.374,14.2998-22.692c38.311-57.7,77.47022-116.976,137.53418-162.344,9.94288-6.18,18.51612-14.936,31.33789-17.167a842.32713,842.32713,0,0,1-49.8872-68.557c-65.6792-102.165-116.42383-209.91-181.14209-312.445-4.79981,4.268-8.29981,9.455-13.689,13.318,97.917-121.049,159.4502-258.081,254.75-380.323.89991-1.159,1.854-2.295,2.76709-3.448h-19.792c-7.31494,8.964-14.352,18.066-21.21924,27.189C1439.969-535.41543,1387.56181-433.42244,1324.75907-335.73743Z" style="fill:#26366d"/><path d="M1762.06864,160.6322c-26.751,13.84619-59.40039,19.2002-90.64794,14.3999,23.0288,17.91407,48.64013,36.646,81.6997,40.6001,41.00781,5.28906,78.85645-13.88623,108.42871-34.4209,27.835-19.2998,52.48145-41.15722,76.75977-63.2998V84.65759c-32.67969,28.10889-64.26563,57.167-101.167,81.727-23.36719,15.05518-49.93555,28.99317-80.417,31.81885-29.043,3.229-58.46777-6.41113-80.01123-21.55908,37.36182,15.6001,82.65284,8.584,115.89991-10.458,55.50586-30.44189,97.74609-72.957,145.70019-110.248V32.33826C1877.22978,72.81628,1829.72392,126.41248,1762.06864,160.6322Z" style="fill:#26366d"/><path d="M359.62089-195.0614c54.1,16.791,97.224,49.87,133.942,84.892,45.257,43.43994,82.008,91.991,117.01,140.97705,60.974,86.916,114.175,177.10009,171.835,265.406h47.913c-59.6-96.66089-115.428-194.842-179.572-289.677-48.62-69.68005-100.049-140.69995-176.542-193.318-43.76794-30.452-102.146-50.1-160.874-44.318-39.75806,2.661-77.012,14.879-113.177,27.441,20.24-31.39294,56.958-59.68,102.694-63.457,25.348-1.479,50.551,3.915,73.407,12.423-12.492,4.332-28.9,4.665-42.419,8.548-2.323.68.80005,1.053,1.77.644,43.421-8.1,90.552-3.79,130.161,12.724,43.21594,17.26294,78.148,45.012,108.5,74.572,53.666,53.054,95.355,113.014,134.482,173.443,58.93,92.343,110.85,187.39489,166.582,280.975h34.966q2.373-2.35876,4.737-4.72607c-55.122-96.71192-107.468-194.546-166.933-289.64-42.837-65.949-87.331-132.373-149.528-188.161-40.988-36.494-94.843-68.725-158.138-71.895-11.506-2.274-25.19995,3.632-35.022-2.779-28.145-16.147-59.066-30.57495-93.395-36.108-30.37305-5.193-63.15906.106-88.325,14.734-41.64795,24.52-63.40906,63.8-79.021,102.017-11.24695,6.418-24.24194,10.83606-35.74,17.062-2.051.92395-7.6,3.13-3.767-2.007,9.262-45.553,25.88794-91.80005,61.228-129.066,24.03894-25.86,63.332-44.76,104.646-41.6,35.253.947,67.14294,14.351,97.26,27.662-38.67395-21.024-74.178-45.93994-110.714-69.234-32-3.493-65.49,4.342-90.412,20.813-26.783,17.861-45.807,42.139-58.943,67.75806-23.512,44.847-32.85205,93.69494-35.773,141.948a113.116,113.116,0,0,1-24.8,11.687c-3.379-74.925,4.9-153.928,49.957-221.155,20.446-30.3,53.669-56.754,96.365-65.269-17.03406-12.562-36.8-24.922-55.99194-36.147-44.759,20.485-70.733,58.923-87.714,96.57605-32.47205,75.325-33.771,156.781-22.439,235.193-4.538,2.72-9.75305,6.08106-15.438,6.51a632.54726,632.54726,0,0,1-12.109-65.072v69.14905a2.11417,2.11417,0,0,1,0,1.423v4.215c51.8-23.693,102.437-49.1,156.654-69.219C219.2039-202.90942,293.39091-216.94348,359.62089-195.0614Z" style="fill:#26366d"/><path d="M278.50993,24.92566c62.531,40.792,111.416,92.875,158.286,144.95215,36.45,41.478,70.822,84.09277,105.873,126.33594h69.152c-40.866-52.7002-80.271-106.13917-122.509-158.14893-41.46594-50.5-84.9-100.56787-138.413-143.51318-45.29505-35.88623-100.30005-67.38184-164.661-75.292-64.384-7.76709-128.052,8.17481-185.958,29.62891v37.75586c28.329-7.82178,57.469-13.47412,87.761-15.45508C157.882-33.56946,225.70988-10.30774,278.50993,24.92566Z" style="fill:#26366d"/><path d="M271.61088-119.92249c51.228,15.471,94.348,44.312,130.89307,76.33594,56.818,50.04907,102.50805,107.30005,145.8,165.156,43.29,57.5,83.367,116.623,125.645,174.64306h56.57c-64.188-93.34594-123.186-189.05395-193.974-279.3999-37.333-46.3-77.029-92.334-128.067-129.75195-39.143-29.448-87.755-52.86206-141.9-58.052-52.47-4.918-104.625,7.092-152.255,23.90893C75.01091-133.01428,37.534-116.09729.274-98.87732v19.34107c37.965-16.344,76.775-31.2439,118.12-41.46509C167.95988-133.0675,222.695-134.77747,271.61088-119.92249Z" style="fill:#26366d"/><path d="M146.8289,117.68884c55.74,24.21192,102.19494,59.6001,145.022,96.52686,30.264,26.35986,58.605,54.00781,86.436,82h87.174c-53.76905-60-107.436-120.05518-171.61707-173.3291-41.1-32.459-86.588-63.083-140.98-80.08008-40.744-13.13184-85.75-17.19287-129.184-12.07617-7.87695.81982-15.666,1.8999-23.4,3.15478V89.663A333.81762,333.81762,0,0,1,146.8289,117.68884Z" style="fill:#26366d"/><path d="M158.6779,296.21472h119.668q-13.582-11.72241-27.561-23.15381c-51.76-42.08691-109.184-82.11816-178.432-104.416a334.24553,334.24553,0,0,0-72.071-14.8628V224.015a428.55584,428.55584,0,0,1,98.573,36.77784A675.80776,675.80776,0,0,1,158.6779,296.21472Z" style="fill:#26366d"/><path d="M1578.3748,85.73645c-4.26612.594-6.42823-2.27808-8.12012-4.9519-90.94385-125.48706-145.81885-265.24195-236.66406-390.74512-3.96094-7.87695-9.78223,5.87012-11.7251,8.58691,86.01416,127.521,141.86182,267.16407,236.2749,391.145-55.521,32.03711-91.34814,80.42188-125.585,126.82105-18.38476,26.16089-35.65576,52.7771-52.36816,79.62109h23.16308c17.854-28.676,36.23487-57.136,55.835-85.1001C1492.055,165.62439,1527.55107,119.9054,1578.3748,85.73645Z" style="fill:#26366d"/><path d="M1480.32157,114.66663c10.06592-5.8899,19.208-13.28492,31.15723-16.71094-32.48486-37.762-58.064-78.93091-83.165-120.073-48.335-81.5-91.05615-165.064-140.8999-246-6.292,8.7-16.7749,16.01489-21.55615,24.97192,42.76611,70.43189,81.22412,142.509,122.81006,213.39991,27.10009,45.7,55.34912,91.26489,91.147,133.10693-29.915,13.28491-54.96094,32.51807-76.66895,53.469-36.69384,36.1001-65.78711,76.61206-93.21386,117.5q-7.23122,10.89992-14.26514,21.874h30.91992c13.563-21.439,27.55176-42.69995,42.2832-63.66992C1400.02861,189.99646,1433.22,147.19666,1480.32157,114.66663Z" style="fill:#121c4e"/><path d="M1352.93168,108.85461c-5.94482-1.948-14.74512.58789-16.87695-6.07495-59.52783-84.83911-106.91016-174.6311-163.75293-260.56689-12.15381,11.52807-26.24317,22.6001-39.22217,32.908,45.583,67.283,86.58789,136.61889,130.583,204.62793,4.52978,6.074,7.43115,13.113,13.56494,18.375C1303.2559,99.3407,1326.42192,112.96155,1352.93168,108.85461Z" style="fill:#121c4e"/><path d="M1742.81034,276.52527c-33.0542-31.32422-59.83789-66.71485-83.3872-102.978,51.8999-8.34619,91.25-39.86084,127.79394-68.35889,47.51953-36.2749,89.93848-78.83691,149.15723-103.48584-5.66211-2.62207-15.66211-1.10009-22.543-1.1621-62.2793,25.98193-106.5,70.99316-155.63281,109.76513-31.124,25.01807-63.84912,50.55078-104.92285,64.72705,28.355,41.33985,55.85693,84.14405,92.58007,121.18018h20.83057A229.02472,229.02472,0,0,1,1742.81034,276.52527Z" style="fill:#121c4e"/><path d="M1620.77421,189.20935c26.6001-21.81494,51.834-44.65381,76.13379-68.11523,43.624-40.89991,85.58887-84.83887,144.04-112.95411-40.61182,5.48682-68.18018,33.42286-96.48,54.95508-50.81885,44.71485-94.03906,94.53321-144.28125,139.63623,3.88721-2.33105,7.49219-5.01806,11.625-7.07812,30.835,31.86523,57.30615,66.09082,83.311,100.56006h11.94532c-26.479-36.082-51.9458-72.67383-80.11182-107.9209C1625.535,185.71033,1622.82011,188.63562,1620.77421,189.20935Z" style="fill:#121c4e"/><path d="M1202.92973,119.84753c8.36621-.99121,16.6001-2.8999,25-3.95507-30.208-33.417-71.12988-61.31983-116.88184-80.958C1146.649,59.49744,1175.98686,89.18933,1202.92973,119.84753Z" style="fill:#26366d"/><path d="M1720.6121,42.51453c1.64307-1.32715,1.082-1.66993-.916-.918-8.334,2.84619-17.68995,4.53613-24.34082,9.77881-45.43213,30.41894-79.1001,70.13623-110.7002,109.792-34.82812,44.36621-66.7998,90.125-100.45312,135.04492h7.95019c37-43.91309,69.87207-90.15478,105.92676-134.55078C1633.34794,118.73083,1669.491,74.60583,1720.6121,42.51453Z" style="fill:#26366d"/><path d="M1671.345,59.80066c.88281-.29981,5.13184-3.88184,1.667-2.58789-7.87988,2.74707-16.51123,4.522-23.50683,8.6001-61.79981,44.02685-102.62793,102.70019-142.853,159.67724-16.187,23.41309-31.86914,47.0669-47.55176,70.72119h14.14893c43.13281-62.0581,84.37988-125.11816,136.5918-182.58007C1628.10917,94.16248,1647.8621,75.39343,1671.345,59.80066Z" style="fill:#26366d"/><path d="M1622.42265,75.75037c1.34521-1.18213,4.76123-4.146.77588-2.7002-8.54883,2.58789-18.376,3.79-24.812,9.38281-33.8711,23.98682-60.728,53.542-85,83.89991-32.84815,41.92382-61.63477,85.667-89.33692,129.88916h18.72022c30.61084-47.918,61.938-95.51807,98.15088-140.916C1564.47489,126.62732,1589.89677,98.38123,1622.42265,75.75037Z" style="fill:#26366d"/><path d="M1339.92118,155.83972c24-21.333,53.6001-39.3999,88.04-48.26709-58.04687-3.16308-107.083,28.78223-142.44922,62.20606-40.3291,38.93408-73,82.07714-103.07617,126.436h41.53906c12.31006-18.354,25.01807-36.54,38.36915-54.45215C1285.23515,211.50769,1309.78691,181.81482,1339.92118,155.83972Z" style="fill:#26366d"/><line x1="0.283" y1="33.88454" x2="0.283" y2="-13.35345" style="fill:none;stroke:#6b6b6b;stroke-linecap:round;stroke-linejoin:round"/><line x1="0.283" y1="153.78058" x2="0.283" y2="224.01358" style="fill:none;stroke:#6b6b6b;stroke-linecap:round;stroke-linejoin:round"/><line x1="0.283" y1="89.66254" x2="0.283" y2="153.78053" style="fill:none;stroke:#6b6b6b;stroke-linecap:round;stroke-linejoin:round"/><line x1="0.283" y1="33.88354" x2="0.283" y2="89.66254" style="fill:none;stroke:#6b6b6b;stroke-linecap:round;stroke-linejoin:round"/><path d="M1623.51786,73.04626c3.98584-1.4458.56885,1.519-.7749,2.7002-32.52588,22.63477-57.94824,50.88086-81.5,79.55078-36.21387,45.3999-67.541,93-98.15088,140.916h16.32422c15.68408-23.65381,31.36524-47.30713,47.55176-70.72022,40.22412-56.97607,81.05078-115.64892,142.853-159.67724Z" style="fill:#121c4e"/><path d="M943.734,264.5824c-65.939-115.219-124.806-232.96-205.238-342.57691-49-66.781-63.906-85.167-107.256-120.41089-37.444-31.25708-93.085-59.16088-148.814-63.03906-9.076-1.5-15.013.6499-24.007-.96191l-48.728,2.28711c8.262.36206,19.415.75708,25.338,1.90893,64.251,3.166,118.92,35.35791,160.528,71.80811,63.137,55.72,108.30005,122.06494,151.788,187.93506,60.364,94.979,110.679,191.5,166.634,288.10009.76294,2.3-.38,4.34009-1.986,5.91211Z" style="fill:#121c4e"/><path d="M1073.45109,167.0448c-8.80005,4.939-17.22412,10.34692-26.08594,15.187-49.135-86.457-97.00805-174.03711-162.4729-253.6001-24.25-30.446-53.5249-58.178-86.48-82.74l-38.45093-21.3081c-8.76709-3.843-16.511-9.11206-25.62792-12.479,59.4541,37.7,101.86889,89.1709,139.333,141.248,55.73194,79.135,101.22608,162.5,146.512,245.6709-4.51294,8.24707-17.666,13.76807-25.187,21.05005" style="fill:#121c4e"/><path d="M966.62016-50.17542C1034.75834,4.7865,1080.605,73.9447,1125.293,141.78845c8.874-2.04687,17.23291-5.96289,25.9502-8.65576-44.46485-63.55176-92.78809-128.729-167.073-172.95508Z" style="fill:#121c4e"/><path d="M1479.81864,103.36658c-35.7998-41.843-64.042-87.40894-91.147-133.10694-41.58594-70.894-80.04394-142.97094-122.81006-213.3999,4.78076-8.957,15.26514-16.27588,21.55616-24.97192,49.83984,80.937,92.562,164.5,140.8999,246,25.1001,41.14209,50.6792,82.311,83.165,120.073Z" style="fill:#121c4e"/><path d="M1330.61308-313.91565c90.84521,125.5,148.689,269.156,239.63281,394.64307,1.69092,2.67407,3.853,5.5459,8.11914,4.9519,4.42676-1.79,9.95117-3.03711,7.40918-2.93091-65.11816-93.04-112.6001-192.98-170.67578-288.79394-20.74316-34.62207-47.8999-76.28-78.61816-112.6001Z" style="fill:#121c4e"/><path d="M1199.6873,120.72449c-60.977,36.34179-103.21778,88.207-143.0708,139.04883q-13.97975,18.08056-27.39991,36.439h56.45313c1.28613-1.7998,2.55908-3.6001,3.85107-5.3999,41.30518-55.959,83.39991-113.76123,146.56885-155.85987,19.75391-12.02294,41.95313-24.39111,67.63086-25.083,0,0-36.51807.89209-73.51709,4.88086-12.7334,1.37548-30.5166,5.97461-30.5166,5.97461Z" style="fill:#121c4e"/><path d="M1427.83622,107.74451c-34.436,8.86816-64.041,26.9331-88.04,48.26709-30.13379,25.97607-54.68506,55.668-77.57714,85.92285-13.35206,17.91308-26.05909,36.1001-38.36915,54.45117h37.55616c29.02685-43.7998,59.36621-87.36621,97.7998-126.42187,25.67676-26.814,57.58887-50.334,96.12988-64.7212Z" style="fill:#121c4e"/><path d="M1110.887,34.78259c36.14112,14.80713,86.15381,47.18018,116.36084,80.6001h3.83594l47.83692-4.94482c-10.24415.01318-23.96485,5.5791-31.166-2.6211a321.03061,321.03061,0,0,0-53.58594-35.21289Z" style="fill:#121c4e"/></g></svg>