<svg id="Time" xmlns="http://www.w3.org/2000/svg" width="1098.18" height="686.82" viewBox="0 0 1098.18 686.82"><defs><style>.cls-1{fill:#1c1f4d;}.cls-2{fill:#fff;}.cls-3{fill:#676d9f;}.cls-4{fill:#edecf2;}.cls-5{fill:#9da4ce;}.cls-6{fill:#c7522b;}.cls-7{fill:#0e232b;}.cls-8{fill:#de4f31;}.cls-9{fill:#e77950;}.cls-10{fill:#686da0;}.cls-11{fill:#e16341;}.cls-12{fill:#d86656;}.cls-13{fill:#0e3e44;}.cls-14{fill:#a51b38;}.cls-15{fill:#c41230;}.cls-16{fill:#1f327a;}.cls-17{fill:#121c4e;}.cls-18{fill:#942916;}.cls-19{fill:#feed93;}.cls-20{fill:#384f5a;}.cls-21{fill:#c42130;}.cls-22,.cls-23{fill:#c42032;}.cls-23{stroke:#c42032;stroke-miterlimit:10;stroke-width:2px;}.cls-24{opacity:0.21;}.cls-25{fill:#686fa0;}.cls-26{fill:#1b1e4d;}.cls-27{fill:#b7c0e2;}.cls-28{fill:#4c547f;}.cls-29{fill:#abb4db;}.cls-30{fill:#732346;}.cls-31{fill:#b2594d;}.cls-32{fill:#e77864;}.cls-33{fill:#0b142d;}.cls-34{fill:#1a1511;}.cls-35{fill:#c6574b;}.cls-36{fill:#191410;}.cls-37{fill:#9b1c2e;}.cls-38{fill:#ed9520;}.cls-39{fill:#f69865;}.cls-40{fill:#4e557f;}</style></defs><title>Business-Race--01</title><path class="cls-1" d="M42.36,406C-14.43,329.37,33.26,252.19,82,218.33c51.38-35.69,85.43-40,121.89-90.84C248.25,65.71,324.5,73.25,355,90.29s67.68,43.58,131,41.93c53.54-1.39,136.88-45.73,228.78,1.63,85.3,44,144.53,183.12,66.93,283.87s-236,76.49-300.37,43.8-142.63-65.64-221-46.7S84.89,463.34,42.36,406Z"/><circle class="cls-2" cx="364.94" cy="373.67" r="206.63"/><g id="Stopwatch"><path class="cls-3" d="M360.78,152.84c-118.93,0-215.35,96.41-215.35,215.35s96.43,215.34,215.35,215.34,215.35-96.41,215.35-215.35S479.73,152.84,360.78,152.84Zm0,412.87c-109.11,0-197.56-88.45-197.56-197.56s88.47-197.52,197.56-197.52,197.56,88.45,197.56,197.56S469.9,565.71,360.78,565.71Z"/><path class="cls-4" d="M360.78,186.19c106.5,0,193.3,84.28,197.39,189.78.1-2.58.17-5.17.17-7.78,0-109.11-88.45-197.56-197.56-197.56S163.24,259.08,163.24,368.19c0,2.61.07,5.2.17,7.78C167.49,270.47,254.29,186.19,360.78,186.19Z"/><rect class="cls-5" x="355.51" y="181.16" width="10.56" height="26.68"/><rect class="cls-5" x="355.51" y="529.65" width="10.56" height="26.68"/><rect class="cls-5" x="521.42" y="362.91" width="26.68" height="10.56"/><rect class="cls-5" x="173.49" y="362.91" width="26.68" height="10.56"/><rect class="cls-3" x="343.46" y="141.98" width="36.48" height="14.31"/><rect class="cls-3" x="335.2" y="113.08" width="52.25" height="22.79"/><rect class="cls-3" x="218.32" y="189.48" width="22.08" height="8.66" transform="translate(-70.72 182.87) rotate(-38.11)"/><rect class="cls-3" x="204.17" y="175.31" width="31.62" height="13.79" transform="translate(-65.56 174.61) rotate(-38.11)"/><path class="cls-3" d="M361.7,593.65a225.32,225.32,0,0,1-192-107.19,1.25,1.25,0,0,1,2.13-1.31h0c41,66.38,112,106,189.86,106a222.17,222.17,0,0,0,120.74-35.44,1.25,1.25,0,0,1,1.36,2.1h0A224.66,224.66,0,0,1,361.7,593.65Z"/><path class="cls-3" d="M387.45,109.54H335.2a1.25,1.25,0,0,1,0-2.5h52.25a1.25,1.25,0,0,1,0,2.5Z"/><path class="cls-3" d="M200.4,184.25a1.25,1.25,0,0,1-.77-2.23l24.88-19.51a1.26,1.26,0,1,1,1.54,2L201.17,184A1.24,1.24,0,0,1,200.4,184.25Z"/></g><path class="cls-6" d="M596,262.28c5.25,1,6.44,13,4,19-.16,6.18-.61,19.18-7.62,20.7-5.93,1.29-7.69,0-7.69,0L579,317.29s5.53,24.4-4.17,25.89-12.64-15-17.13-23.15a166.42,166.42,0,0,0-8.79-14.32s14.42-11.57,18.51-21.76S572.72,257.71,596,262.28Z"/><path class="cls-7" d="M596.26,278.17a1,1,0,1,1-1.12-.87h.07A1,1,0,0,1,596.26,278.17Z"/><path class="cls-8" d="M593.57,284.49a4.77,4.77,0,1,1-5.42-4.29,5,5,0,0,1,5.36,4Z"/><path class="cls-9" d="M599.92,278.81a32,32,0,0,0,2.47,3.94c.87,1,1.34,2.32.22,2.88a10.63,10.63,0,0,1-3.88.35Z"/><path class="cls-10" d="M575.26,282.11l4.42.41s-.4-7.47.44-10a15.63,15.63,0,0,0,10.16-8.33s18-1.26,15.45-8.09-11.66-.34-14.24-1.34-9-5.72-18.83.34-10.08,11.18-10.35,15.23,1,12.61.74,16.29c-.12,2.07,2.63,3.43,5.55,3.08S575.26,282.11,575.26,282.11Z"/><path class="cls-11" d="M577.31,272.91c-4.75-1.27-10.34,2-9.46,8.07s9,6,9,6a57.48,57.48,0,0,1-.53-6.89A26,26,0,0,1,577.31,272.91Z"/><path class="cls-8" d="M576.68,275.85a4,4,0,0,0-5.16,4.49c.51,3.33,5,3.23,5,3.23s-.13-1.74-.18-3.83A18.3,18.3,0,0,1,576.68,275.85Z"/><g id="Boy"><path class="cls-12" d="M452.17,363.82c-3.63-2.74-4.27-5.66-5.25-7.59s-5.73-6-4.79-10.08-6.41-1.15-6.41-1.15-5.31,12.64-3.41,15.29c.56.78,1.51.55,2.54,1.48.4.36.77,1.06,1.41,1.41.84.45,1.63.26,2.27.65,1.13.69,1.41,1.83,2.84,2,2.75.33,3.46-5.9,3.46-5.9s1.42,4.9,4.46,5.61a2.34,2.34,0,0,0,2.86-1.66Z"/><path class="cls-6" d="M642.06,338.4c-.75,5.24-3.36,7.52-4.77,9.6s-2.58,9.54-7.26,10.87l2.12,6.82s15-1.79,16.61-5.21c.48-1,.28-2.52.64-4.08.14-.61,1.15-1,1.14-1.88,0-1.1-.85-1.37-.81-2.24.07-1.54,1.7-2,1.3-3.63s-8.8-.6-8.8-.6,2.7-5.87,2.23-7.9C644.15,338.86,642.06,338.4,642.06,338.4Z"/><path class="cls-13" d="M370.28,480.25c-2.37-.41-5.93,14.37.63,17.32S372.68,480.71,370.28,480.25Z"/><path class="cls-13" d="M641,619.4c1.66,2.35,21.86-10.33,15-12.78S638.06,615.22,641,619.4Z"/><path class="cls-14" d="M357.89,497c3.79-6.5,10.47-15.86,8-18.65C361.31,474.8,350.07,497.59,357.89,497Z"/><path class="cls-14" d="M661.12,612.71c-4.91,5.7-13.17,13.7-11.2,16.9C653.78,634,668.92,613.58,661.12,612.71Z"/><path class="cls-13" d="M627.4,357.63c3.54-1.4,7.59,12.34,5.58,13.79S623.48,359.18,627.4,357.63Z"/><path class="cls-6" d="M538.18,429.86V442l125.6,182.36L657.17,631l-143-165.43s-49.72,52.35-64.9,54.21-95.1-32.53-95.1-32.53l1.86-7.43s65.06,11.15,95.41,21.69l39.65-74.35,2.48-9.71Z"/><path class="cls-2" d="M657.38,639.83s4.14,3.71,5.1,3.47c3.25-.8,16.78-14,18.65-15,3.56-2.07,18.69-17.22,18.39-20.41s-3.83-4.5-3.83-4.5Z"/><path class="cls-15" d="M658,640c-1.28.54-8.09-8.92-8.07-10.37s8.32-2.61,10-7.1.65-9,1.17-9.8,18.24-.37,18.24-.37,16.68-10.7,16.29-8.82C693.1,615.56,663.09,637.82,658,640Z"/><path class="cls-2" d="M666,619.6h-.09a1.25,1.25,0,0,1-1.15-1.34l.47-6.24a1.23,1.23,0,0,1,1.3-1.15h0a1.25,1.25,0,0,1,1.18,1.31h0l-.47,6.24A1.25,1.25,0,0,1,666,619.6Z"/><path class="cls-2" d="M672.78,619.71h-.09a1.25,1.25,0,0,1-1.15-1.34l.47-6.24a1.23,1.23,0,0,1,1.3-1.15h0a1.25,1.25,0,0,1,1.15,1.34l-.47,6.24A1.25,1.25,0,0,1,672.78,619.71Z"/><path class="cls-2" d="M356.66,469.71s-4.74-2.9-5.65-2.49c-3,1.38-14,16.78-15.61,18.18-3.12,2.68-15.26,20.32-14.39,23.4s4.58,3.73,4.58,3.73Z"/><path class="cls-15" d="M356,469.63c1.16-.77,9.58,7.31,9.81,8.74s-7.71,4.07-8.58,8.8,1,8.91.62,9.85S340,500.71,340,500.71s-14.47,13.54-14.42,11.63C325.92,500,351.41,472.71,356,469.63Z"/><path class="cls-2" d="M352.71,499.84a1.25,1.25,0,0,1-1.24-1.12l-.69-6.21a1.25,1.25,0,0,1,2.49-.27l.67,6.22a1.25,1.25,0,0,1-1.11,1.38h-.12Z"/><path class="cls-2" d="M346,501a1.25,1.25,0,0,1-1.24-1.12l-.67-6.22a1.25,1.25,0,0,1,2.49-.27l.67,6.22a1.25,1.25,0,0,1-1.11,1.38H346Z"/><path class="cls-16" d="M370.28,480.25s1.81,11.36.63,17.32c2,2,74.33,40.1,91.68,33.69s55-61.68,55-61.68l-27-47.38-41,78.51C428.52,481.28,382.88,483.84,370.28,480.25Z"/><path class="cls-17" d="M497.39,497h0c11.23-14.25,20.23-27.45,20.23-27.45l-9.67-17-24.8-16.06C482.21,440.19,477,476.84,497.39,497Z"/><path class="cls-16" d="M493.57,417.47l44.61,12.39c23.6,26.18,123.6,177.78,119.13,178.3S641,619.4,641,619.4c-17.21-22.91-58.73-62.8-79.09-91.44-11.09-15.61-28.91-45.44-39.65-48.33S459.7,459.19,493.57,417.47Z"/><path class="cls-17" d="M646,614.23a1.25,1.25,0,0,1-1-.55c-9-13.19-27.22-39.2-48.27-65.21-8.07-10-16.42-20.11-24.48-29.92-31.76-38.58-49.68-60.66-48.68-65.89a2.11,2.11,0,0,1,1-1.48,6.92,6.92,0,0,0,3.55-7.55c-.67-4.23-4-8-7.83-8.72a1.25,1.25,0,0,1,.48-2.45c4.85.94,9,5.48,9.82,10.78a9.32,9.32,0,0,1-4.62,10c-.42,4.68,25.38,36,48.18,63.71,8.07,9.81,16.42,20,24.5,29.93C619.74,573,638,599,647,612.26a1.25,1.25,0,0,1-1,2Z"/><path class="cls-12" d="M538.59,308.58c-9.49-2.63-54.93-13.84-63-11.44s-40.26,50.57-40.26,50.57l4.54,2.68s34.49-33.74,36.55-34.32,45.64,17.59,45.64,17.59Z"/><path class="cls-17" d="M538.59,308.58c-9.49-2.63-54.93-13.84-63-11.44-5.94,1.77-27.35,26.74-37,40.61l11.1,8.88c8.36-9.91,27.32-28.7,28.81-29.12,2.07-.58,43.53,16.11,43.53,16.11Z"/><path class="cls-15" d="M535.91,309s35.82-7,46.26,18c20.42,49-44,102.85-44,102.85s-62.58,5.58-76.62-12.39C491.3,393.1,517.12,317,535.91,309Z"/><path class="cls-16" d="M535.91,309s37.06-9,47.5,16c20.42,49-43.78,100.37-70.63,107-22.4,5.51-42-2.66-51.22-14.46C491.3,393.1,517.12,317,535.91,309Z"/><path class="cls-17" d="M581.68,369,555.2,329.6c-2.88,16-5.27,48.91,1.17,74.74C566.93,394.21,576.39,382.24,581.68,369Z"/><path class="cls-6" d="M565,316.27c19.62-4.46,22.75,53.28,22.75,53.28,3.82-2.48,40-7.79,44.89-12.33l2.91,8c-4.23.31-49.35,28.53-53.79,26.67C575.83,389.38,537.53,322.52,565,316.27Z"/><path class="cls-16" d="M565,316.27c19.62-4.46,22.75,53.28,22.75,53.28,3.82-2.48,39.65-11.93,39.65-11.93.46,5.42,6.14,12.55,5.58,13.79,0,0-46.78,22.3-51.22,20.45C575.83,389.38,537.53,322.52,565,316.27Z"/><path class="cls-16" d="M542.31,308.23l12.88-9.62s17.37,8.77,25.38,21.18Z"/><path class="cls-17" d="M587.78,378.71a1.25,1.25,0,0,1-1.25-1.22c0-.48-1.3-48-14.41-58.36a7.81,7.81,0,0,0-6.8-1.68,1.25,1.25,0,0,1-.52-2.45,10.32,10.32,0,0,1,8.87,2.17c14,11.1,15.31,58.26,15.36,60.26a1.25,1.25,0,0,1-1.22,1.28h0Z"/><path class="cls-17" d="M591.16,378.71a1.25,1.25,0,0,1-1.25-1.25c0-3.34-2.4-6.43-3-7.07a1.25,1.25,0,1,1,1.77-1.77,14,14,0,0,1,3.77,8.84,1.25,1.25,0,0,1-1.25,1.25Z"/><path class="cls-17" d="M456.61,510.83a1.25,1.25,0,0,1-1-.54c-15.23-22.08-50.18-25.13-71.06-27-6.46-.57-11.56-1-14.59-1.87a1.25,1.25,0,0,1,.68-2.4c2.79.79,7.79,1.23,14.12,1.79,21.32,1.87,57,5,72.9,28a1.25,1.25,0,0,1-1,2Z"/><path class="cls-17" d="M458.88,504.58a19.13,19.13,0,0,1-6.39-1.25,12.51,12.51,0,0,0-3.46-.82,1.25,1.25,0,0,1,.08-2.5,14.48,14.48,0,0,1,4.17.94,15.19,15.19,0,0,0,7.16,1,1.25,1.25,0,0,1,.28,2.48A16.27,16.27,0,0,1,458.88,504.58Z"/><path class="cls-17" d="M499.72,434.71c-17.31,0-34-8-44.12-21.87a1.25,1.25,0,1,1,2-1.47c12.18,16.68,34.18,24.43,54.88,19.34,10.69-2.63,28.12-14.23,43.36-28.86a1.25,1.25,0,0,1,1.73,1.8c-15.53,14.91-33.41,26.76-44.49,29.48A55.87,55.87,0,0,1,499.72,434.71Z"/><rect class="cls-18" x="421.78" y="302.62" width="46.7" height="67.17" transform="matrix(0.38, -0.92, 0.92, 0.38, -35.33, 619.63)"/><rect class="cls-19" x="424.7" y="301.23" width="45.38" height="66.91" transform="translate(-32.53 620.78) rotate(-67.6)"/><rect class="cls-15" x="425.32" y="304.09" width="46.7" height="67.17" transform="translate(-34.5 623.81) rotate(-67.6)"/><path class="cls-12" d="M434,360.77h-.15a2,2,0,0,1-1.85-2.14h0l.31-4.25a2,2,0,1,1,4,.29h0l-.31,4.25A2,2,0,0,1,434,360.77Z"/><path class="cls-12" d="M437.23,362.9h-.15a2,2,0,0,1-1.85-2.14h0l.31-4.25a2,2,0,1,1,4,.29h0l-.31,4.25A2,2,0,0,1,437.23,362.9Z"/><path class="cls-12" d="M441,364.71h-.15a2,2,0,0,1-1.85-2.14h0l.31-4.25a2,2,0,1,1,4,.29h0l-.31,4.25A2,2,0,0,1,441,364.71Z"/></g><path class="cls-10" d="M807.29,307.35c1.18,4.73-1.92,12.56-8,14.06s-11-2-12.18-6.7a9.55,9.55,0,0,1,7.08-11.5l.39-.09C800.66,301.62,806.11,302.61,807.29,307.35Z"/><path class="cls-9" d="M797.65,333.1s6.9-15.23,7.72-19.9-7.92-17.67-.2-30.46,25.23-11.32,31.93-5.63,8.07,13.33,6.7,24.14-1.6,21.37-7.69,22.39a32.56,32.56,0,0,1-9.82.38s-5.79,17.67-9.75,25.53Z"/><path class="cls-7" d="M838.78,299.8a1,1,0,1,1-2,0h0a1,1,0,0,1,1-1h0A1,1,0,0,1,838.78,299.8Z"/><circle class="cls-8" cx="830.97" cy="307.47" r="5.2"/><path class="cls-9" d="M843,300.93s3.16,3.16,3.38,4.4-4.51,2-4.51,2Z"/><path class="cls-10" d="M804.78,310.89a.92.92,0,0,0,1,.84h.13c4-1,6.57-7.64,9.23-9.4a37.82,37.82,0,0,1,8.25-4.75c4.62-1.83,6.5-11.27,5.28-18a21.43,21.43,0,0,1,6.19,8.63c.59-.2,9.59-2.44,9.44-3-2.13-8.93-13.1-13.86-24.82-12.79-14,1.28-17.67,12.11-18.58,16.75a30.24,30.24,0,0,0,1.37,15.23C803.33,307.15,804.61,309.71,804.78,310.89Z"/><path class="cls-11" d="M821.28,294.51c-5.43-2-12.31,1.28-11.91,8.47s10,7.91,10,7.91a67.52,67.52,0,0,1,.09-8.12A30.61,30.61,0,0,1,821.28,294.51Z"/><path class="cls-8" d="M820.24,297.89a4.73,4.73,0,0,0-6.5,4.72c.25,4,5.51,4.3,5.51,4.3s0-2.06.18-4.5A21.5,21.5,0,0,1,820.24,297.89Z"/><rect class="cls-20" x="863.67" y="206.76" width="7.47" height="201.1"/><rect class="cls-20" x="1090.71" y="477.36" width="7.47" height="201.1"/><polygon class="cls-21" points="867.41 227.26 1092.4 494.61 1092.4 529.16 867.41 255.51 867.41 227.26"/><path class="cls-22" d="M808.54,134.84l-8.06-30-8.06-30a3.38,3.38,0,0,0-1-1.55,3.8,3.8,0,0,0-1.73-.95l-.79-.15-.78-.14c-11.33-1.88-21.4.92-31,5.44s-18.76,10.77-28.2,15.81a78.14,78.14,0,0,1-17.16,7,45,45,0,0,1-18.8.93h-.29l-.24-.87-.24-.87a3.21,3.21,0,0,0-6.2,1.63l6.86,25.56,6.88,25.57,13.15,49,13.13,49a3.2,3.2,0,0,0,6.24-1.43h0a.47.47,0,0,0-.06-.23L721,206.77l-11.15-41.64h.29c18,3,32.78-5.78,47.6-14.59S787.39,133,805.33,136l.78.14.79.15h.1a1.61,1.61,0,0,0,1.34-.27A1.13,1.13,0,0,0,808.54,134.84Z"/><path class="cls-22" d="M728.65,253.34a3.83,3.83,0,0,1-3.07-2.78l-40-149.07a3.82,3.82,0,0,1,7.38-2h0l.37,1.37a44.25,44.25,0,0,0,18.43-.93,76.8,76.8,0,0,0,17-6.95c3.9-2.08,7.82-4.4,11.62-6.65,5.39-3.2,11-6.51,16.63-9.18,11.46-5.39,21.43-7.14,31.37-5.5h0l.8.14.8.15A4.4,4.4,0,0,1,792,73a4,4,0,0,1,1.21,1.84L809.35,135a1.74,1.74,0,0,1-.45,1.82,2.17,2.17,0,0,1-1.86.41h0l-.82-.16-.77-.14c-17.74-2.94-32.71,5.94-47.17,14.51s-29.46,17.47-47.36,14.77L733,248.6a3.82,3.82,0,0,1-2.7,4.68h0a3.77,3.77,0,0,1-1.61.08Zm-39-155.39a2.54,2.54,0,0,0-.54,0,2.58,2.58,0,0,0-2.37,3.25l40,149.07a2.57,2.57,0,0,0,1.2,1.57,2.62,2.62,0,0,0,.42.2,2.58,2.58,0,0,0,3.36-3.1L709.1,164.63l1.24.22c17.75,2.94,32.71-5.93,47.18-14.51,14.66-8.68,29.82-17.69,48-14.67l.8.14.8.15,0,.62.11-.61h0a1.08,1.08,0,0,0,.85-.12.58.58,0,0,0,.07-.58L792,75.17a2.77,2.77,0,0,0-.85-1.24,3.2,3.2,0,0,0-1.45-.77L789,73l-.77-.14h0c-9.82-1.63-19.27,0-30.64,5.39C752,80.9,746.4,84.2,741,87.38c-3.8,2.26-7.74,4.59-11.67,6.67a77.71,77.71,0,0,1-17.3,7.06,45.43,45.43,0,0,1-19,.94l-.68-.12-.58-2.17a2.58,2.58,0,0,0-2.08-1.88Z"/><path class="cls-2" d="M723,134.57l1.85,4.43-1.79.72-5.78-13.82,3.92-1.64a5.18,5.18,0,0,1,3.39.2,5.06,5.06,0,0,1,0,9.4Zm-3.17-7.6,2.42,5.78,1.63-.68a3.15,3.15,0,0,0-2.42-5.78Z"/><path class="cls-2" d="M734.62,131.93a2.72,2.72,0,0,0,1.75-.51,3.25,3.25,0,0,0,1.56-2,3.84,3.84,0,0,1,.14-.72l2-.38a12.58,12.58,0,0,1-.24,1.64,5.33,5.33,0,1,1-4.4-6.66,5.5,5.5,0,0,1,.61.14l.72.25-.35,1.34Zm-.21-6.81a2.74,2.74,0,0,0-1.4.52,3.34,3.34,0,0,0-1.21,4.56,2.77,2.77,0,0,0,1,1.14Z"/><path class="cls-2" d="M740.6,120.8a3.44,3.44,0,0,1,1.27-2.81l1.18,1.63a2.48,2.48,0,0,0-1,1.54,3.17,3.17,0,0,0,.51,2.39l2.89,4-1.58,1.11-5.63-7.82,1.58-1.14Z"/><path class="cls-2" d="M744.09,116.45l1.66-1,.46.77a2.13,2.13,0,0,1,1.11-2.33,1.63,1.63,0,0,1,2.26.34l.09.13a2.29,2.29,0,0,1,1.32-2.69q1.76-1.08,3,1.06l4,6.56-1.66,1-3.51-5.78q-.72-1.21-1.72-.62a1.14,1.14,0,0,0-.53.72q-.12.47.87,2.12l2.89,4.79-1.66,1-3.51-5.78q-.72-1.21-1.73-.61a1.14,1.14,0,0,0-.53.72,2.53,2.53,0,0,0,.51,1.49l3.28,5.41-1.66,1Z"/><path class="cls-2" d="M757,105.48a1.35,1.35,0,1,1-1.76.73h0a1.34,1.34,0,0,1,1.76-.72Zm1.45,3.28,3.79,8.86-1.78.76-3.79-8.86Z"/><path class="cls-2" d="M762.87,107.1l-1.06-3.46,1.85-.56,1.06,3.46,1.66-.51.56,1.85-1.66.51,2.25,7.36-1.85.56-2.25-7.36-1.66.51-.56-1.85Z"/><path class="cls-2" d="M772.51,112.53a1.14,1.14,0,0,0,.86.22,1.16,1.16,0,0,0,.54-2.08,6.83,6.83,0,0,0-1.09-.57,6.8,6.8,0,0,1-1.62-.79,2.51,2.51,0,0,1-1-1.71,2.63,2.63,0,0,1,2.2-3h0a2.44,2.44,0,0,1,1.89.47,2.32,2.32,0,0,1,.81,1l-1.79.8a.87.87,0,0,0-.17-.29.61.61,0,0,0-.47-.1.72.72,0,0,0-.58.77.65.65,0,0,0,.26.45,6.51,6.51,0,0,0,.87.46,7.69,7.69,0,0,1,1.83.91,3.12,3.12,0,0,1-3.72,5h0a3,3,0,0,1-1-1.45l1.85-.68A1.18,1.18,0,0,0,772.51,112.53Z"/><path class="cls-23" d="M1000.63,70.14,985.36,36.75,970.08,3.36a4,4,0,0,0-1.5-1.6,4.49,4.49,0,0,0-2.2-.74h-1.94c-13.57,0-24.76,5.26-35.07,12.41S909.68,29.6,899.68,37.28a92.33,92.33,0,0,1-18.62,11.49,53.15,53.15,0,0,1-21.72,4.75H859l-.45-1-.45-1a3.81,3.81,0,1,0-7,3l.08.17,13,28.45,13,28.45,24.89,54.5L927,220.57a3.78,3.78,0,0,0,6.88-3.14h0l-21.21-46.38-21.21-46.38h.34c21.53,0,37.08-13.18,52.61-26.31S975.5,72.13,997,72.08h2a1.9,1.9,0,0,0,1.51-.58A1.33,1.33,0,0,0,1000.63,70.14Z"/><path class="cls-2" d="M897.21,80.64a7.67,7.67,0,0,1-3.54.1,3.93,3.93,0,0,1-2.53-1.84,4.15,4.15,0,0,1,4.44-6.22,5.08,5.08,0,0,1,2.1,1.18l-1.33,1.8a4,4,0,0,0-1.28-.76,1.88,1.88,0,0,0-2.22,1.4,1.77,1.77,0,0,0,.23,1.39,1.79,1.79,0,0,0,1.16.83,6,6,0,0,0,2,0,8.69,8.69,0,0,1,4.12-.07,5.26,5.26,0,0,1,3.45,2.44,5.51,5.51,0,0,1-5.92,8.31A6.21,6.21,0,0,1,894.61,87l1.46-1.88A4.58,4.58,0,0,0,898.41,87a3.24,3.24,0,1,0,1.45-6.32h0A6.73,6.73,0,0,0,897.21,80.64Z"/><path class="cls-2" d="M901.58,69.58a1.6,1.6,0,0,1,1.4,1.78h0a1.62,1.62,0,0,1-1.79,1.39,1.6,1.6,0,0,1-1.4-1.78h0A1.61,1.61,0,0,1,901.58,69.58Zm2.58,3.33,7,9-1.81,1.39-7-9Z"/><path class="cls-2" d="M914.61,64.65l-.54-.57,1.67-1.59,5.83,6.14a6.93,6.93,0,0,1,2.22,5,6.92,6.92,0,0,1-6.46,6.14,14.42,14.42,0,0,1-1.92-.28l1.09-2.17.91.08a3.82,3.82,0,0,0,2.81-1.09q2-1.84.27-5.21a3.81,3.81,0,0,1-1.24,4,6.16,6.16,0,0,1-4.46,1.76,5.9,5.9,0,0,1-4.36-1.93,6.29,6.29,0,0,1,.22-8.89h0A5.23,5.23,0,0,1,914.61,64.65Zm2.54,2.69a3.69,3.69,0,0,0-2.08-.65,3.94,3.94,0,1,0,3.85,4.05,3.69,3.69,0,0,0-.53-2.05Z"/><path class="cls-2" d="M922,60.33l5.55,6.21-1.71,1.53-7.59-8.48L920,58.06l.92,1a2.8,2.8,0,0,1,.85-3.38,3.62,3.62,0,0,1,3.09-1,5.11,5.11,0,0,1,3,1.7l4.94,5.52-1.7,1.52L926.2,58a2.27,2.27,0,0,0-1.66-.78A2.45,2.45,0,0,0,922,59.5,2.56,2.56,0,0,0,922,60.33Z"/><path class="cls-2" d="M930.4,53.84l6.17-4.07,1.27,1.91-6.17,4.07Z"/><path class="cls-2" d="M943.29,41.55a6.31,6.31,0,1,1-3.4,3.45A6.06,6.06,0,0,1,943.29,41.55Zm-1.23,4.32a3.94,3.94,0,1,0,2.14-2.14A3.81,3.81,0,0,0,942.06,45.87Z"/><path class="cls-2" d="M956.57,40.91l1.76,8.94-2.25.44-1.76-9-1,.2-.44-2.24,1-.2-.39-2a3.63,3.63,0,0,1,.6-2.6,3.42,3.42,0,0,1,2.16-1.5,7.21,7.21,0,0,1,2.13.07L958,35.34a4.75,4.75,0,0,0-1.28-.17,1.34,1.34,0,0,0-.81.55,1.28,1.28,0,0,0-.21.94l.38,1.92,2-.39.44,2.24Z"/><path class="cls-2" d="M964,40.08l.54,9.08-2.3.14-.54-9.08-1,.06L960.55,38l1-.06-.12-2a3.64,3.64,0,0,1,.94-2.49,3.42,3.42,0,0,1,2.35-1.12,7.19,7.19,0,0,1,2.11.35l-.64,2.2a4.76,4.76,0,0,0-1.25-.33,1.33,1.33,0,0,0-.87.44,1.27,1.27,0,0,0-.34.9l.12,2,2-.12L966,40Z"/><path class="cls-2" d="M970.69,46.9a1.35,1.35,0,0,0,1,.51,1.37,1.37,0,0,0,1.52-1.2h0a1.31,1.31,0,0,0-.29-1,8.11,8.11,0,0,0-1.08-1,7.93,7.93,0,0,1-1.61-1.39,3,3,0,0,1-.65-2.26A3.11,3.11,0,0,1,973,37.8a2.88,2.88,0,0,1,2,1.09,2.74,2.74,0,0,1,.61,1.44l-2.28.38a1,1,0,0,0-.12-.38.72.72,0,0,0-.5-.25.81.81,0,0,0-.73,1.29,7.48,7.48,0,0,0,.87.77,9.08,9.08,0,0,1,1.82,1.59,3.66,3.66,0,1,1-5.73,4.54,3.6,3.6,0,0,1-.76-2L970.5,46A1.39,1.39,0,0,0,970.69,46.9Z"/><path class="cls-22" d="M633.91,140.71l-4.22-21-4.22-21a2.33,2.33,0,0,0-.64-1.11,2.62,2.62,0,0,0-1.15-.71l-.53-.14-.53-.13c-7.71-1.79-14.76-.31-21.57,2.37s-13.38,6.58-20.12,9.63a53.85,53.85,0,0,1-12.15,4,31,31,0,0,1-13-.19h-.2l-.12-.61-.12-.61a2.21,2.21,0,1,0-4.39.51q0,.1,0,.19v.17L554.6,130l3.59,17.89,6.88,34.26L572,216.37a2.21,2.21,0,0,0,4.33-.87l-5.85-29.15-5.85-29.15h.2c12.23,2.84,22.81-2.54,33.38-7.93s21.15-10.77,33.38-7.93l.53.13.53.14h.18a1.11,1.11,0,0,0,.94-.12A.78.78,0,0,0,633.91,140.71Z"/><path class="cls-22" d="M573.59,218.44a2.64,2.64,0,0,1-.45-.15,2.67,2.67,0,0,1-.41-.22,2.63,2.63,0,0,1-1.12-1.67L550.68,112.1a2.64,2.64,0,0,1,5.17-1l.19,1a30.49,30.49,0,0,0,12.72.17,52.91,52.91,0,0,0,12-4c2.78-1.25,5.58-2.68,8.29-4.06a127.69,127.69,0,0,1,11.85-5.58c8.12-3.2,15.06-4,21.82-2.39a2.65,2.65,0,0,1,.54.13l.54.14a3,3,0,0,1,1.34.82,2.73,2.73,0,0,1,.75,1.32l8.43,42a1.2,1.2,0,0,1-.39,1.23,1.52,1.52,0,0,1-1.3.2h0l-.56-.15-.53-.13c-12.08-2.8-22.76,2.64-33.09,7.9s-21,10.71-33.23,8.07l11.56,57.63a2.63,2.63,0,0,1-2.06,3.1h0a2.61,2.61,0,0,1-1.11,0Zm-19.94-108.6a1.74,1.74,0,0,0-.75,0,1.78,1.78,0,0,0-1.4,2.09l20.93,104.3a1.77,1.77,0,0,0,.76,1.13,1.83,1.83,0,0,0,.28.15,1.8,1.8,0,0,0,.67.15,1.83,1.83,0,0,0,.38,0,1.78,1.78,0,0,0,1.4-2.09h0l-11.83-59,.84.2c12.08,2.81,22.76-2.63,33.09-7.9s21.29-10.84,33.67-8l.54.13.54.14-.06.42.1-.41h0a.74.74,0,0,0,.59,0,.4.4,0,0,0,.08-.39l-8.43-42a1.91,1.91,0,0,0-.53-.89,2.21,2.21,0,0,0-1-.6l-.53-.14-.53-.13h0c-6.68-1.55-13.25-.83-21.32,2.36-4,1.57-7.94,3.59-11.78,5.54-2.72,1.38-5.52,2.81-8.32,4.08a53.75,53.75,0,0,1-12.21,4.09,31.31,31.31,0,0,1-13.14-.2l-.46-.11-.3-1.5a1.78,1.78,0,0,0-1.34-1.38Z"/><path class="cls-2" d="M564.6,133.92l6.69,8.71-1.35.43L567.57,140l-2.61.82-.18,3.91-1.36.43.47-11Zm2.11,4.93-1.57-2-.11,2.57Z"/><path class="cls-2" d="M573.93,140.71l1.19,2.82-1.23.52-3.45-8.17,1.23-.52.23.55a2.89,2.89,0,0,1,1.63-1.92,3.67,3.67,0,1,1,2.86,6.77A3,3,0,0,1,573.93,140.71Zm-1.24-3,.4,1a2.13,2.13,0,0,0,1,.78,2.31,2.31,0,1,0-1.27-3h0a2.13,2.13,0,0,0-.14,1.27Z"/><path class="cls-2" d="M582.42,136.85l1.42,2.71-1.18.62-4.12-7.86,1.18-.62.28.53a2.89,2.89,0,0,1,1.47-2.05,3.68,3.68,0,0,1,3.41,6.53A3,3,0,0,1,582.42,136.85ZM580.94,134l.48.92a2.13,2.13,0,0,0,1.07.69,2.31,2.31,0,1,0-1.51-2.9h0a2.14,2.14,0,0,0,0,1.27Z"/><path class="cls-2" d="M587.92,128.2a2.37,2.37,0,0,1,1-1.86l.71,1.19a1.7,1.7,0,0,0-.75,1,2.18,2.18,0,0,0,.21,1.67l1.76,2.93-1.15.69-3.41-5.69,1.15-.69Z"/><path class="cls-2" d="M597.3,124.71a3.68,3.68,0,1,1-2.8-.21A3.53,3.53,0,0,1,597.3,124.71Zm-2.38,1.09a2.3,2.3,0,1,0,1.76.13,2.22,2.22,0,0,0-1.76-.09Z"/><path class="cls-2" d="M602.78,125.91l-5.89-4.41,1.34-.7,3.77,2.89-.23-4.75,1.34-.7.27,7.35Z"/><path class="cls-2" d="M610,115.89l-.17-.43,1.25-.49,2.45,6.18-1.25.49-.31-.77a3,3,0,0,1-1.72,1.76,3.67,3.67,0,1,1-2.7-6.83h0A3,3,0,0,1,610,115.89Zm1.17,2.95-.36-.91a2.16,2.16,0,0,0-1-.83,2.3,2.3,0,1,0,1.18,3v0h0a2.16,2.16,0,0,0,.16-1.28Z"/><path class="cls-2" d="M613.6,110.4l2.94,9.9-1.29.38-2.94-9.9Z"/><path class="cls-2" d="M619.24,118.14a.79.79,0,0,0,.6.1.8.8,0,0,0,.62-.94v-.06a.76.76,0,0,0-.35-.5,4.7,4.7,0,0,0-.78-.34,4.68,4.68,0,0,1-1.15-.46,1.73,1.73,0,0,1-.79-1.13,1.75,1.75,0,0,1,.24-1.36,1.73,1.73,0,0,1,1.16-.74,1.68,1.68,0,0,1,1.32.22,1.6,1.6,0,0,1,.61.68l-1.19.65a.6.6,0,0,0-.13-.19.42.42,0,0,0-.33,0,.47.47,0,0,0-.36.56h0a.45.45,0,0,0,.2.29,4.48,4.48,0,0,0,.63.26,5.29,5.29,0,0,1,1.31.53,2.14,2.14,0,1,1-2.29,3.6,2.1,2.1,0,0,1-.79-.93l1.24-.56A.81.81,0,0,0,619.24,118.14Z"/><g class="cls-24"><path class="cls-25" d="M624.09,423l12.38,3.16A50.51,50.51,0,0,1,624.09,423Z"/><path class="cls-25" d="M641.5,426.49,620,421q-.85-.49-1.59-1l25.29,6.46C643,426.49,642.24,426.5,641.5,426.49Z"/><polygon class="cls-25" points="643.4 425.46 619.42 419.34 621.12 419.18 642.32 424.59 643.4 425.46"/><polygon class="cls-25" points="640.63 423.23 623.78 418.93 625.48 418.77 639.55 422.36 640.63 423.23"/><polygon class="cls-25" points="637.85 421 628.14 418.52 629.72 418.37 636.85 420.19 637.85 421"/><polygon class="cls-25" points="635.08 418.77 632.5 418.11 634.08 417.96 635.08 418.77"/><path class="cls-25" d="M644.65,412l-12.39-3.16A50.49,50.49,0,0,1,644.65,412Z"/><path class="cls-25" d="M627.25,408.45,648.8,414q.85.49,1.59,1l-25.29-6.46C625.8,408.45,626.5,408.44,627.25,408.45Z"/><polygon class="cls-25" points="625.34 409.49 649.32 415.61 647.63 415.77 626.42 410.36 625.34 409.49"/><polygon class="cls-25" points="628.11 411.72 644.96 416.02 643.26 416.18 629.19 412.59 628.11 411.72"/><polygon class="cls-25" points="630.89 413.95 640.6 416.43 639.02 416.58 631.89 414.75 630.89 413.95"/><polygon class="cls-25" points="633.66 416.18 636.24 416.84 634.66 416.99 633.66 416.18"/><path class="cls-2" d="M660.66,414.53l-3.74.35q-6-4.59-16.61-7.29a61.18,61.18,0,0,0-19.79-2l-2.38-1.91-1.67.16,2.38,1.91q-8.84,1-11.2,4.91t3.1,8.56l-3.74.35,1.06.85,3.74-.35q6,4.59,16.61,7.29a61.16,61.16,0,0,0,19.79,2l2.38,1.91,1.67-.16-2.38-1.91q8.84-1,11.2-4.91t-3.1-8.56l3.74-.35Zm-21.86-4.42a34.72,34.72,0,0,1,12.2,5.33L634.68,417l-10.4-8.36A45.76,45.76,0,0,1,638.8,410.11Zm-24.33,2.28q1.72-2.87,8.14-3.63l10.4,8.36-16.35,1.53q-3.92-3.4-2.2-6.27ZM630,424.85a34.78,34.78,0,0,1-12.25-5.33L634.07,418l10.42,8.38A45.79,45.79,0,0,1,630,424.86Zm24.32-2.28q-1.72,2.87-8.13,3.64l-10.42-8.38,16.35-1.53q3.92,3.4,2.2,6.28Z"/></g><g class="cls-24"><path class="cls-25" d="M915.59,415.34l10.57.37A28.77,28.77,0,0,1,915.59,415.34Z"/><path class="cls-25" d="M930.34,414.77,912,414.12a14.74,14.74,0,0,1-1.43-.74l21.59.76Q931.27,414.48,930.34,414.77Z"/><polygon class="cls-25" points="931.8 413.04 911.33 412.32 912.71 411.67 930.82 412.31 931.8 413.04"/><polygon class="cls-25" points="929.25 411.17 914.88 410.66 916.25 410.01 928.27 410.44 929.25 411.17"/><polygon class="cls-25" points="926.72 409.29 918.42 409 919.71 408.4 925.79 408.62 926.72 409.29"/><polygon class="cls-25" points="924.17 407.42 921.98 407.34 923.25 406.74 924.17 407.42"/><path class="cls-25" d="M931.29,396.84l-10.57-.37A28.76,28.76,0,0,1,931.29,396.84Z"/><path class="cls-25" d="M916.54,397.41l18.37.65a14.76,14.76,0,0,1,1.43.74l-21.56-.8Z"/><polygon class="cls-25" points="915.09 399.14 935.57 399.87 934.18 400.51 916.08 399.87 915.09 399.14"/><polygon class="cls-25" points="917.63 401.02 932.01 401.53 930.63 402.17 918.62 401.74 917.63 401.02"/><polygon class="cls-25" points="920.16 402.89 928.47 403.18 927.18 403.78 921.09 403.57 920.16 402.89"/><polygon class="cls-25" points="922.72 404.76 924.91 404.84 923.63 405.44 922.72 404.76"/><path class="cls-26" d="M944.78,395.54l-3,1.42q-5.49-3.77-14.53-4.09a37.24,37.24,0,0,0-16.55,3l-2.18-1.61-1.36.63,2.18,1.61q-7.18,3.55-8.67,8.79t3.53,9.22l-3,1.42,1,.72,3-1.42q5.49,3.77,14.53,4.09a37.23,37.23,0,0,0,16.55-3l2.18,1.61,1.36-.63-2.18-1.61q7.18-3.55,8.67-8.79t-3.53-9.22l3-1.42Zm-18.53.7q6.62.23,10.69,3l-13.31,6.21-9.53-7a27.81,27.81,0,0,1,12.15-2.15Zm-19.81,9.25q1.1-3.84,6.3-6.46l9.53,7L909,412.24q-3.62-2.94-2.53-6.78Zm14.2,10.45q-6.63-.23-10.71-3l13.31-6.21,9.54,7a27.82,27.82,0,0,1-12.14,2.14Zm19.8-9.25q-1.09,3.84-6.29,6.47l-9.54-7L937.92,400q3.62,2.94,2.53,6.78Z"/></g><g class="cls-24"><path class="cls-25" d="M230.7,385.53l7.49,2.27A17.23,17.23,0,0,1,230.7,385.53Z"/><path class="cls-25" d="M241.23,387.71l-13-3.94a13,13,0,0,1-1-1l15.3,4.63A13,13,0,0,1,241.23,387.71Z"/><polygon class="cls-25" points="242.4 386.31 227.88 381.92 228.91 381.57 241.75 385.45 242.4 386.31"/><polygon class="cls-25" points="240.72 384.1 230.53 381.01 231.56 380.66 240.06 383.23 240.72 384.1"/><polygon class="cls-25" points="239.04 381.88 233.16 380.1 234.13 379.77 238.44 381.08 239.04 381.88"/><polygon class="cls-25" points="237.37 379.66 235.81 379.19 236.76 378.86 237.37 379.66"/><path class="cls-25" d="M243.18,371l-7.49-2.27A17.23,17.23,0,0,1,243.18,371Z"/><path class="cls-25" d="M232.65,368.89l13,3.94a13,13,0,0,1,1,1l-15.3-4.63A12.92,12.92,0,0,1,232.65,368.89Z"/><polygon class="cls-25" points="231.5 370.25 246 374.64 244.97 375 232.15 371.12 231.5 370.25"/><polygon class="cls-25" points="233.16 372.47 243.35 375.56 242.32 375.91 233.81 373.33 233.16 372.47"/><polygon class="cls-25" points="234.84 374.69 240.72 376.47 239.76 376.79 235.44 375.49 234.84 374.69"/><polygon class="cls-25" points="236.51 376.9 238.07 377.38 237.12 377.71 236.51 376.9"/><path class="cls-2" d="M252.87,372.25l-2.26.78a21.81,21.81,0,0,0-22-6.66l-1.44-1.9-1,.35,1.44,1.9q-5.36,2-6.79,6.67t1.86,9.29l-2.26.78.64.85,2.26-.78a21.81,21.81,0,0,0,22,6.66l1.44,1.9,1-.35-1.44-1.9q5.36-2,6.79-6.67t-1.86-9.29l2.26-.78Zm-13.23-2.7a14.81,14.81,0,0,1,7.39,4.72l-9.9,3.42-6.28-8.31A15,15,0,0,1,239.64,369.55Zm-14.74,5.08a7.69,7.69,0,0,1,4.94-4.92l6.28,8.31-9.9,3.42a7.59,7.59,0,0,1-1.32-6.81ZM234.26,387a14.83,14.83,0,0,1-7.41-4.72l9.9-3.42L243,387.2a15,15,0,0,1-8.78-.19ZM249,381.93a7.67,7.67,0,0,1-4.93,4.92l-6.28-8.32,9.9-3.42a7.61,7.61,0,0,1,1.32,6.82Z"/></g><g class="cls-24"><path class="cls-25" d="M551,671l18.75,6.07A62,62,0,0,1,551,671Z"/><path class="cls-25" d="M577.78,677.88l-32.51-10.54a27.28,27.28,0,0,1-2.15-1.86l38.22,12.38C580.13,677.91,578.94,677.91,577.78,677.88Z"/><polygon class="cls-25" points="581.28 676.03 545.05 664.29 547.88 664.04 579.91 674.43 581.28 676.03"/><polygon class="cls-25" points="577.76 671.9 552.3 663.65 555.13 663.4 576.39 670.29 577.76 671.9"/><polygon class="cls-25" points="574.25 667.76 559.57 663 562.18 662.77 572.97 666.27 574.25 667.76"/><polygon class="cls-25" points="570.72 663.62 566.83 662.36 569.45 662.13 570.72 663.62"/><path class="cls-25" d="M589.23,651.43l-18.71-6.06A62,62,0,0,1,589.23,651.43Z"/><path class="cls-25" d="M562.53,644.61,595,655.15a27.3,27.3,0,0,1,2.15,1.86L559,644.63C560.13,644.58,561.32,644.57,562.53,644.61Z"/><polygon class="cls-25" points="558.98 646.46 595.22 658.2 592.38 658.45 560.35 648.06 558.98 646.46"/><polygon class="cls-25" points="562.5 650.59 587.96 658.84 585.13 659.09 563.88 652.2 562.5 650.59"/><polygon class="cls-25" points="566.02 654.73 580.71 659.48 578.09 659.72 567.29 656.22 566.02 654.73"/><polygon class="cls-25" points="569.54 658.87 573.45 660.13 570.83 660.36 569.54 658.87"/><path class="cls-26" d="M614.08,656.49l-6.22.55q-7.76-8.52-23.76-13.7a82.12,82.12,0,0,0-31.24-4.12l-3-3.55-2.77.25,3,3.55q-14.78,1.6-20.32,8.7t1.28,15.7l-6.22.55,1.35,1.58,6.22-.55q7.76,8.52,23.75,13.7a82.11,82.11,0,0,0,31.24,4.12l3,3.55,2.77-.25-3-3.55q14.78-1.6,20.32-8.7t-1.28-15.7l6.22-.55Zm-33.54-8.59q11.71,3.8,17.5,10l-27.2,2.42-13.21-15.51a61.33,61.33,0,0,1,22.92,3.09Zm-40.49,3.6q4.06-5.19,14.81-6.43l13.21,15.51L540.87,663q-4.87-6.3-.82-11.5Zm19.7,23.1q-11.74-3.8-17.54-10l27.2-2.42,13.24,15.53a61.34,61.34,0,0,1-22.9-3.1Zm40.47-3.6q-4,5.21-14.8,6.45L572.19,661.9l27.2-2.42q4.87,6.3.82,11.51Z"/></g><g class="cls-24"><path class="cls-25" d="M874.51,595.54l2.16,3.67A5.93,5.93,0,0,1,874.51,595.54Z"/><path class="cls-25" d="M877.89,599.57l-3.76-6.38a8,8,0,0,0-.06-1.19l4.42,7.5A2.46,2.46,0,0,1,877.89,599.57Z"/><polygon class="cls-25" points="878.77 598.3 874.59 591.19 875.11 590.97 878.8 597.26 878.77 598.3"/><polygon class="cls-25" points="878.85 595.63 875.9 590.64 876.41 590.43 878.88 594.6 878.85 595.63"/><polygon class="cls-25" points="878.91 592.97 877.23 590.09 877.7 589.89 878.95 592 878.91 592.97"/><polygon class="cls-25" points="878.99 590.3 878.53 589.54 879.01 589.34 878.99 590.3"/><path class="cls-25" d="M884,582l-2.16-3.67A5.93,5.93,0,0,1,884,582Z"/><path class="cls-25" d="M880.65,577.91l3.76,6.38a8,8,0,0,0,.06,1.19l-4.42-7.5A2.44,2.44,0,0,1,880.65,577.91Z"/><polygon class="cls-25" points="879.75 579.2 883.96 586.3 883.43 586.52 879.74 580.23 879.75 579.2"/><polygon class="cls-25" points="879.7 581.86 882.63 586.85 882.13 587.07 879.66 582.9 879.7 581.86"/><polygon class="cls-25" points="879.62 584.53 881.32 587.4 880.85 587.6 879.6 585.49 879.62 584.53"/><polygon class="cls-25" points="879.54 587.19 880 587.95 879.52 588.15 879.54 587.19"/><path class="cls-26" d="M887.38,584.85l-1.13.47q.06-5.48-1.79-8.62t-4.57-2.17l.06-2.29-.5.21-.07,2.26q-2.73,1.31-4.78,6.08a28.84,28.84,0,0,0-2.29,10.32l-1.13.47v1l1.13-.47q-.06,5.48,1.79,8.62t4.57,2.17l-.06,2.29.5-.21.06-2.29q2.73-1.31,4.78-6.08a28.84,28.84,0,0,0,2.29-10.32l1.13-.47Zm-4.24-5.08a12.27,12.27,0,0,1,1.33,6.29l-4.93,2.06.26-10q2-.66,3.34,1.63Zm-7.36,3.07q1.51-3.49,3.5-4.49l-.26,10-4.93,2.06a21.47,21.47,0,0,1,1.69-7.56Zm-.38,14.87a12.27,12.27,0,0,1-1.34-6.3l4.93-2.06-.26,10q-2,.66-3.34-1.64Zm7.34-3.07q-1.51,3.5-3.5,4.5l.26-10,4.93-2.06a21.53,21.53,0,0,1-1.7,7.57Z"/></g><g class="cls-24"><path class="cls-25" d="M250.94,630.28l.6,5.29A10.56,10.56,0,0,1,250.94,630.28Z"/><path class="cls-25" d="M252.57,637.94l-1-9.2a3.29,3.29,0,0,1,.42-.54l1.23,10.8A9.54,9.54,0,0,1,252.57,637.94Z"/><polygon class="cls-25" points="253.94 639.12 252.78 628.86 253.35 629.73 254.38 638.79 253.94 639.12"/><polygon class="cls-25" points="255.09 638.29 254.26 631.09 254.84 631.95 255.53 637.97 255.09 638.29"/><polygon class="cls-25" points="256.24 637.46 255.76 633.31 256.31 634.11 256.64 637.16 256.24 637.46"/><polygon class="cls-25" points="257.38 636.63 257.25 635.53 257.8 636.33 257.38 636.63"/><path class="cls-25" d="M265.62,642.89l-.6-5.29A10.56,10.56,0,0,1,265.62,642.89Z"/><path class="cls-25" d="M264,635.23l1,9.2a3.28,3.28,0,0,1-.42.54l-1.23-10.81Q263.71,634.71,264,635.23Z"/><polygon class="cls-25" points="262.62 634.06 263.79 644.31 263.2 643.45 262.18 634.38 262.62 634.06"/><polygon class="cls-25" points="261.48 634.89 262.3 642.09 261.71 641.23 261.02 635.21 261.48 634.89"/><polygon class="cls-25" points="260.32 635.72 260.8 639.87 260.25 639.07 259.92 636.02 260.32 635.72"/><polygon class="cls-25" points="259.19 636.55 259.31 637.65 258.76 636.85 259.19 636.55"/><path class="cls-26" d="M267.68,650.09l-1.28-1.9q2.27-1.86,1.76-6.38a21.35,21.35,0,0,0-3.53-9.18l1-.71-.57-.85-1,.71a20.42,20.42,0,0,0-7.08-6.61q-3.91-2.07-6.38-.5l-1.28-1.9-.44.32,1.28,1.9q-2.27,1.86-1.76,6.38a21.34,21.34,0,0,0,3.53,9.17l-1,.71.57.85,1-.71a20.42,20.42,0,0,0,7.08,6.61q3.91,2.07,6.38.5l1.28,1.9Zm-2-9.62q.38,3.31-1.26,4.71l-5.6-8.33,4.3-3.11a15.84,15.84,0,0,1,2.56,6.73Zm-8.33-12.4a15.13,15.13,0,0,1,5.2,4.82l-4.3,3.11-5.6-8.33q1.79-1.11,4.66.41Zm-6.43,4.64q-.38-3.32,1.26-4.72l5.6,8.33-4.3,3.11a15.82,15.82,0,0,1-2.55-6.72Zm8.33,12.39a15.09,15.09,0,0,1-5.2-4.82l4.3-3.11,5.6,8.33Q262.12,646.61,259.25,645.1Z"/></g><g class="cls-24"><path class="cls-25" d="M211.4,562.25l5.22,5.11A14.27,14.27,0,0,1,211.4,562.25Z"/><path class="cls-25" d="M219.25,568.47l-9.06-8.87a11.91,11.91,0,0,1-.33-1.27l10.65,10.38A11.53,11.53,0,0,1,219.25,568.47Z"/><polygon class="cls-25" points="220.93 567.69 210.82 557.8 211.88 557.89 220.81 566.64 220.93 567.69"/><polygon class="cls-25" points="220.62 564.98 213.53 558.03 214.57 558.12 220.5 563.92 220.62 564.98"/><polygon class="cls-25" points="220.31 562.27 216.22 558.26 217.19 558.34 220.21 561.29 220.31 562.27"/><polygon class="cls-25" points="220.01 559.56 218.93 558.49 219.91 558.57 220.01 559.56"/><path class="cls-25" d="M229.29,554l-5.22-5.11A14.27,14.27,0,0,1,229.29,554Z"/><path class="cls-25" d="M221.43,547.71l9.06,8.87a11.9,11.9,0,0,1,.34,1.27l-10.66-10.43A11.49,11.49,0,0,1,221.43,547.71Z"/><polygon class="cls-25" points="219.76 548.54 229.87 558.43 228.81 558.34 219.88 549.6 219.76 548.54"/><polygon class="cls-25" points="220.06 551.25 227.16 558.2 226.12 558.11 220.19 552.31 220.06 551.25"/><polygon class="cls-25" points="220.38 553.97 224.47 557.97 223.49 557.89 220.49 554.95 220.38 553.97"/><polygon class="cls-25" points="220.68 556.68 221.76 557.74 220.78 557.66 220.68 556.68"/><path class="cls-2" d="M236.9,559l-2.32-.2a18.31,18.31,0,0,0-15.33-15l-.26-2.33-1-.09.26,2.33a11.24,11.24,0,0,0-9.13,3.38,11.39,11.39,0,0,0-3.1,9.28l-2.32-.2.12,1,2.32.2a18.31,18.31,0,0,0,15.33,15l.26,2.33,1,.09-.26-2.33a11.24,11.24,0,0,0,9.13-3.38,11.39,11.39,0,0,0,3.1-9.28l2.32.2Zm-9.9-7.81a12.8,12.8,0,0,1,3.9,7.31l-10.15-.86-1.14-10.17a12.65,12.65,0,0,1,7.37,3.72Zm-15-1.28a8.34,8.34,0,0,1,6.67-2.52l1.15,10.16-10.14-.84A8.47,8.47,0,0,1,212,549.9ZM213.71,565a12.81,12.81,0,0,1-3.89-7.34l10.13.86,1.14,10.18a12.66,12.66,0,0,1-7.39-3.7Zm15.07,1.28a8.32,8.32,0,0,1-6.67,2.53L221,558.71l10.13.86a8.49,8.49,0,0,1-2.31,6.79Z"/></g><g class="cls-24"><path class="cls-25" d="M88,538.16,79.9,533A26.18,26.18,0,0,1,88,538.16Z"/><path class="cls-25" d="M76.18,531.84l14.14,8.94A13.43,13.43,0,0,1,91.1,542L74.48,531.51Q75.32,531.64,76.18,531.84Z"/><polygon class="cls-25" points="74.25 532.53 90 542.49 88.63 542.37 74.69 533.56 74.25 532.53"/><polygon class="cls-25" points="75.39 535.17 86.45 542.17 85.08 542.04 75.83 536.2 75.39 535.17"/><polygon class="cls-25" points="76.53 537.81 82.91 541.84 81.63 541.73 76.94 538.76 76.53 537.81"/><polygon class="cls-25" points="77.67 540.45 79.36 541.52 78.08 541.4 77.67 540.45"/><path class="cls-25" d="M67.21,545.49l8.14,5.15A26.17,26.17,0,0,1,67.21,545.49Z"/><path class="cls-25" d="M79.07,551.81l-14.14-8.94a13.43,13.43,0,0,1-.78-1.24l16.63,10.51Q79.93,552,79.07,551.81Z"/><polygon class="cls-25" points="81 551.12 65.25 541.16 66.63 541.29 80.56 550.1 81 551.12"/><polygon class="cls-25" points="79.86 548.48 68.8 541.49 70.17 541.61 79.42 547.46 79.86 548.48"/><polygon class="cls-25" points="78.73 545.85 72.34 541.81 73.63 541.93 78.33 544.89 78.73 545.85"/><polygon class="cls-25" points="77.59 543.21 75.89 542.14 77.19 542.25 77.59 543.21"/><path class="cls-26" d="M56,540.33l3,.28q2.59,5.48,9.54,9.88A33.9,33.9,0,0,0,83,555.71L84,558l1.36.12-1-2.26q7.27.5,10.85-2.93T96.63,544l3,.28-.44-1-3-.28q-2.59-5.48-9.54-9.88a33.89,33.89,0,0,0-14.38-5.24l-1-2.26-1.36-.12,1,2.26q-7.27-.5-10.85,2.93t-1.45,8.87l-3-.28Zm14.89,8a18.4,18.4,0,0,1-7-7.23l13.31,1.22,4.27,9.89a25.31,25.31,0,0,1-10.54-3.88Zm19.81,1.82q-2.62,2.51-7.92,2.19l-4.27-9.89,13.31,1.22q1.49,4-1.12,6.48Zm-6.37-14.73a18.43,18.43,0,0,1,7.06,7.24l-13.31-1.22-4.31-10a25.32,25.32,0,0,1,10.53,3.89Zm-19.8-1.82q2.62-2.52,7.92-2.2l4.27,9.91-13.31-1.22q-1.49-4,1.13-6.49Z"/></g><g class="cls-24"><path class="cls-25" d="M48.44,226.45v-3.88A5.4,5.4,0,0,1,48.44,226.45Z"/><path class="cls-25" d="M47.64,221.71v6.74q-.23.48-.5,1v-7.92A2.23,2.23,0,0,1,47.64,221.71Z"/><polygon class="cls-25" points="46.35 222.33 46.38 229.84 45.88 229.78 45.85 223.14 46.35 222.33"/><polygon class="cls-25" points="45.08 224.4 45.1 229.67 44.59 229.6 44.59 225.2 45.08 224.4"/><polygon class="cls-25" points="43.8 226.46 43.81 229.5 43.34 229.44 43.34 227.2 43.8 226.46"/><polygon class="cls-25" points="42.52 228.52 42.52 229.33 42.06 229.27 42.52 228.52"/><path class="cls-25" d="M34.73,232.77v3.88A5.4,5.4,0,0,1,34.73,232.77Z"/><path class="cls-25" d="M35.53,237.49v-6.74q.23-.48.5-1v7.92A2.22,2.22,0,0,1,35.53,237.49Z"/><polygon class="cls-25" points="36.81 236.9 36.78 229.39 37.28 229.46 37.31 236.1 36.81 236.9"/><polygon class="cls-25" points="38.09 234.84 38.08 229.56 38.58 229.63 38.59 234.03 38.09 234.84"/><polygon class="cls-25" points="39.38 232.77 39.37 229.73 39.83 229.79 39.84 232.03 39.38 232.77"/><polygon class="cls-25" points="40.66 230.71 40.65 229.9 41.12 229.96 40.66 230.71"/><path class="cls-26" d="M33.43,229l1.1.15A15.13,15.13,0,0,0,32,236.71q0,3.32,2.59,3.8l-1.1,1.77.49.07,1.1-1.77q2.75.22,6.55-2.58a26.25,26.25,0,0,0,6.53-7.06l1.1.15.49-.79-1.1-.15a15.13,15.13,0,0,0,2.55-7.59q0-3.32-2.59-3.8l1.1-1.77-.49-.07-1.1,1.77q-2.75-.22-6.55,2.58A26.25,26.25,0,0,0,35,228.33l-1.1-.15Zm1,5.94a11.17,11.17,0,0,1,1.84-5.56l4.83.64-4.79,7.74Q34.44,237.37,34.43,234.94Zm7.18,1q-2.79,2.05-4.81,1.93l4.79-7.73,4.83.64a19.54,19.54,0,0,1-4.8,5.16Zm7.17-11.56A11.17,11.17,0,0,1,46.94,230l-4.83-.64,4.8-7.75q1.86.39,1.87,2.82Zm-7.18-1q2.79-2.06,4.82-1.93l-4.8,7.75-4.83-.64a19.59,19.59,0,0,1,4.8-5.17Z"/></g><g id="Boy-2"><rect class="cls-3" x="58.61" y="340.88" width="57.74" height="79.87" rx="3.98" ry="3.98" transform="translate(-106.1 41.4) rotate(-16.76)"/><path class="cls-27" d="M115.55,391a1.35,1.35,0,0,1-.39-2.64l9.17-2.76-8.76-29.07-9.17,2.76a1.35,1.35,0,0,1-.93-2.53h.15l10.46-3.15a1.35,1.35,0,0,1,1.68.9l9.53,31.65a1.35,1.35,0,0,1-.9,1.68L115.93,391A1.35,1.35,0,0,1,115.55,391Z"/><path class="cls-5" d="M124.78,408.39l-21.67-72.08a4.15,4.15,0,0,0-.26-.62,4,4,0,0,0-3-.31l-14.64,4.41c-7,10.33-9.08,26.32-4.2,42.5,5.06,16.81,16.22,29.35,28.32,33.65l13.56-4.08a3.94,3.94,0,0,0,2.06-1.48A4.12,4.12,0,0,0,124.78,408.39Z"/><path class="cls-28" d="M83.62,382c5.16,17.13,16.94,29.62,29.38,32.86l9.85-3a4,4,0,0,0,2.66-5h0L104.78,338a4,4,0,0,0-5-2.66h0l-9.85,3C81.38,347.91,78.46,364.83,83.62,382Z"/><rect class="cls-29" x="77.97" y="379" width="12.5" height="7.74" rx="2.02" ry="2.02" transform="translate(-106.83 40.55) rotate(-16.76)"/><rect class="cls-5" x="78.62" y="377.84" width="12.5" height="7.74" rx="2.02" ry="2.02" transform="translate(-106.47 40.69) rotate(-16.76)"/><path class="cls-30" d="M125.46,356.8c-.49,1.31,8.6,11.15,12.4,7.25S125.89,355.64,125.46,356.8Z"/><path class="cls-31" d="M129.78,386c-.84-5.22,1-8.18,1.69-10.59s.42-11,4.49-13.7L131.11,357s-13.76,6.18-14.3,9.92c-.16,1.1.49,2.49.6,4.09,0,.62-.79,1.33-.53,2.13.34,1,1.22,1,1.44,1.9.39,1.49-1,2.41-.16,3.85s8.58-2,8.58-2-.83,6.41.23,8.21C127.63,386.19,129.78,386,129.78,386Z"/><path class="cls-31" d="M373.6,330.79c-.69,2.41-.28,11-4.31,13.76l4.91,4.66s14.18-6.45,14.67-10.2c.14-1.1-1-2.38-1.15-4,0-.62.77-1.34.5-2.14-.35-1-1.23-1-1.46-1.88-.41-1.48.13-1.91-.76-3.33s-7.68,1.64-7.68,1.64S374.29,328.38,373.6,330.79Z"/><path class="cls-32" d="M41.67,432.88l-20.3-7.39v6.9s7.71,5.65,19.07,13.78Z"/><path class="cls-17" d="M207.91,403.45,119.78,461.3,41.69,432.88l-1.23,13.29c28.8,20.62,81,57.18,90.34,58,13,1.21,115.29-40.46,115.29-40.46Z"/><path class="cls-33" d="M186.92,486.78l10.8-4.07c25.49-9.71,48.37-19,48.37-19l-38.18-60.22C196.4,423.23,174.27,448.85,186.92,486.78Z"/><path class="cls-4" d="M29.78,420.86s-4.8-2.25-5.61-1.77c-2.75,1.62-11.49,17.34-12.89,18.84C8.6,440.79-1.06,458.77.09,461.59s4.69,3.06,4.69,3.06Z"/><path class="cls-34" d="M29.17,420.88c1-.85,8.65,5.79,8.63,9.18,0,1.38-5.3,2.74-5.64,7.31s2.88,6.32,2.73,7.27c-.44,2.91-17.67,7.33-17.67,7.33S4.93,466.3,4.78,464.48C3.78,452.8,25.1,424.26,29.17,420.88Z"/><path class="cls-2" d="M29,449.91a1.25,1.25,0,0,1-1.22-1l-1.28-5.82a1.25,1.25,0,0,1,2.43-.61v.07l1.28,5.82a1.25,1.25,0,0,1-1,1.48h0Z"/><path class="cls-2" d="M22.78,451.71a1.25,1.25,0,0,1-1.22-1l-1.28-5.82a1.25,1.25,0,0,1,2.43-.61h0v.07L24,450.17a1.25,1.25,0,0,1-1,1.48h0Z"/><path class="cls-33" d="M48,432.78l-6.28-2.07-1.66,18c1.86,1.34,4.62,2.67,6.64,4.11Z"/><path class="cls-32" d="M389.22,621.85c8.24,13.08,13.9,22.31,13.9,22.31l5.12-3s-3.08-10.17-7.79-25.22Z"/><path class="cls-22" d="M274.13,333.29c11.84-2,52.39,27.72,52.39,27.72l43.26-20.14c2.94-.29,6.63,6.09,7.87,8,0,0-38.87,44.46-50.82,40.72-40.11-12.52-45.18-19.21-45.18-19.21S262.29,335.29,274.13,333.29Z"/><path class="cls-17" d="M207.91,403.45c-3.94,9-28.54,40.52,15,64.73s93.58,50.58,114.82,77.35c13.07,16.45,34.76,50,49.54,73.33l12.15-6C387,573.21,364.78,504.71,355.89,492.79c-12.59-16.92-73.2-65.33-73.2-65.33l-29.48-25.93Z"/><path class="cls-31" d="M268.23,297.38,250,313.91s14.58,11.35,22.43,12.89,18.1-16.92,18.1-16.92Z"/><path class="cls-31" d="M296.51,307.43c-1.67,2.29-16,2.06-29-9.59S265,267,279.19,268a29.72,29.72,0,0,1,21.32,10.92l1.38,18.26a9,9,0,0,1-3.76-.14C296.58,298.88,297.78,305.71,296.51,307.43Z"/><path class="cls-34" d="M298.1,297c11.66,2.22,1.32,24,1.13,27s-32.87-.26-25.24-19.63c6.4-16.25,2.11-12.94,2.11-12.94l-15,12.4s-17.2-26-.71-41.33c13.42-12.5,28.37.59,42.9-2.16,3.15,4.62,8,14.83-2.79,18.53-11.21,3.86-19.77,12.39-11.74,19.15C292.58,301.32,295.1,296.46,298.1,297Z"/><circle class="cls-31" cx="276.91" cy="288.39" r="5.99" transform="translate(-78.35 471.8) rotate(-73.47)"/><circle class="cls-35" cx="276.89" cy="288.39" r="2.63" transform="translate(-78.35 471.79) rotate(-73.47)"/><path class="cls-36" d="M289,285.38a1.25,1.25,0,0,1-.36-2.45c2-.62,3.9-1.09,5.71-1.54,6-1.5,10.29-2.58,12.81-7.23.55-1,5-10.11-6.64-18.46a1.25,1.25,0,1,1,1.45-2c10.89,7.79,9.77,17.3,7.38,21.68-3,5.61-8.31,6.93-14.4,8.46-1.78.45-3.63.91-5.59,1.51A1.25,1.25,0,0,1,289,285.38Z"/><path class="cls-22" d="M207.91,403.45c6.11-41.83,9.25-59.82,38-92.55,43.39,0,46,41.31,47.08,53.15,3.25,37-10.33,63.41-10.33,63.41C257.68,413.48,243.14,436.51,207.91,403.45Z"/><path class="cls-22" d="M234.87,324.19s-39.06-10.66-47.31-10c-19.58,1.48-62.1,42.65-62.1,42.65.73,3.68,9.32,4.5,12.4,7.25,0,0,37-24.41,45.27-24.41,3.26,0,38.87,21,38.87,21Z"/><path class="cls-37" d="M254.45,372.46A136.81,136.81,0,0,1,217,357.71l-1.54,5c-1,3.71-1.85,7.34-2.59,10.82C223,378.16,245.71,377.45,254.45,372.46Z"/><path class="cls-37" d="M264.69,342.12a1.25,1.25,0,0,1-1-.54c-5.27-7.56-33.91-20.67-71.91-24.57a1.25,1.25,0,0,1,.25-2.49c39.29,4,68,17.48,73.68,25.64a1.25,1.25,0,0,1-1,2Z"/><path class="cls-4" d="M394.07,641.88s2.71,4.6,3.65,4.61c3.19,0,19.25-8.81,21.24-8.37,3.83.85,21.9-10.33,22.54-13.31s-2.2-5.18-2.2-5.18Z"/><path class="cls-34" d="M394.58,642.2c-1.31.13-3.91-9.64-2-12.44.78-1.14,5.93.71,8.76-2.89s1.16-6.85,1.81-7.55c2-2.16,18.74,3.84,18.74,3.84s18.22-5,17.32-3.38C433.47,630,399.84,641.71,394.58,642.2Z"/><path class="cls-2" d="M408.06,626.07a1.25,1.25,0,0,1-1.16-1.71l2.2-5.54a1.25,1.25,0,0,1,2.32.92l-2.2,5.54A1.25,1.25,0,0,1,408.06,626.07Z"/><path class="cls-2" d="M414.21,628.07a1.25,1.25,0,0,1-1.16-1.71l2.2-5.54a1.25,1.25,0,0,1,2.32.92l-2.2,5.54A1.25,1.25,0,0,1,414.21,628.07Z"/><polygon class="cls-33" points="383.75 617.75 386.25 623.67 402.93 614.94 401.1 608.03 383.75 617.75"/><path class="cls-33" d="M128.32,478.2h-.1a1.25,1.25,0,0,1-1.15-1.34c1-13.66-23.63-21.27-40-26.3-5.51-1.7-9.87-3-12.4-4.33A1.25,1.25,0,0,1,75.79,444h0c2.34,1.19,6.82,2.57,12,4.17,17.09,5.26,42.91,13.22,41.71,28.88A1.25,1.25,0,0,1,128.32,478.2Z"/><path class="cls-31" d="M374.89,334.44h-.11a1.5,1.5,0,0,1-1.43-1.57h0l.23-5.15a1.5,1.5,0,0,1,1.32-1.42l5.89-.72a1.51,1.51,0,1,1,.36,3h0l-4.63.56-.17,3.88A1.5,1.5,0,0,1,374.89,334.44Z"/><path class="cls-33" d="M135.16,472.34a1.25,1.25,0,0,1-1-.53c-3-4.22-11.54-7.63-15.12-8.2a1.25,1.25,0,0,1,.39-2.47c4.16.66,13.32,4.32,16.77,9.23a1.25,1.25,0,0,1-1,2Z"/><path class="cls-36" d="M306,271a1.25,1.25,0,0,1-1.22-1c0-.2-.08-.45-.12-.75A12.73,12.73,0,0,0,298,259a1.25,1.25,0,1,1,1.21-2.19h0c6.7,3.72,7.41,9.91,7.78,12.39,0,.25,0,1.59-.71,1.72Z"/><path class="cls-33" d="M393.33,617.1a1.25,1.25,0,0,1-1.14-.73c-.37-.8-36.66-80.34-47.94-101s-97.26-80.08-113.57-90a1.25,1.25,0,0,1,1.3-2.13c13.31,8.11,102.36,68.77,114.47,91,11.31,20.74,47.65,100.35,48,101.16a1.25,1.25,0,0,1-1.14,1.77Z"/><path class="cls-37" d="M246.78,427.37c-15.57,0-30.82-4-47.2-26.89a1.25,1.25,0,0,1,2-1.45c19.85,27.79,37.22,26.63,57.32,25.3,7.32-.49,14.89-1,22.89,0a1.25,1.25,0,1,1,0,2.5h-.26c-7.78-.91-15.23-.42-22.44.06C255,427.1,250.89,427.37,246.78,427.37Z"/><path class="cls-33" d="M387.28,618.46a1.25,1.25,0,0,1-1-.49c-9.68-12.75-52.46-78.71-58-89.35a1.25,1.25,0,0,1,2.22-1.15c5.46,10.58,48.08,76.28,57.72,89a1.25,1.25,0,0,1-1,2Z"/></g><g id="Girl"><path class="cls-38" d="M875.69,362.71c.65-.87,13.11.73,12.12,2.52S872.89,366.45,875.69,362.71Z"/><path class="cls-39" d="M876,377.82,888.15,363a4.07,4.07,0,0,0-6.2-5.26l-12.48,14.19Z"/><path class="cls-39" d="M907.4,346.56l-.26.1a1.39,1.39,0,0,0-.27.12l-.17.13-.82.53c-.36.26-.76.52-1.2.86-1.76,1.3-4.09,3.23-6.34,5.21s-4.47,4-6.08,5.61l-2.65,2.64a3.35,3.35,0,0,1-4.94-4.52l.14-.15.27-.25h0s1.21-1,3.06-2.44,4.34-3.29,6.89-5.08,5.14-3.5,7.22-4.71c.51-.31,1-.57,1.45-.81l.65-.33.29-.14.35-.16.63-.25.35-.11.27-.07a2,2,0,0,1,1.24,3.8Z"/><path class="cls-15" d="M880.92,360.21a2.51,2.51,0,0,1-1.5-4.51L907,335.16a2.51,2.51,0,0,1,3,4l-27.54,20.55A2.49,2.49,0,0,1,880.92,360.21Z"/><rect class="cls-15" x="711.87" y="367.95" width="71.16" height="48.41" transform="matrix(0.96, -0.27, 0.27, 0.96, -78.26, 217.03)"/><path class="cls-32" d="M781.85,425.71s-66.36,63-77,65.6-99.54-.55-99.54-.55l1.09-8.44,90.12-14L729.27,403Z"/><path class="cls-32" d="M781.85,425.71c17.7,13.82,54.07,51.83,54.07,63.8,0,10.24-55,94.69-75.08,126.69l-10.23-2,52.17-121.82S699.47,441.94,729.29,403L752,401Z"/><path class="cls-35" d="M740.85,463.36,705,451.42l-8.47,16.89c4,2.12,10.92,6.25,27.35,9.63C729.14,473.6,735,468.56,740.85,463.36Z"/><path class="cls-35" d="M823.11,467.3H762.68s-.08.28-.17.76c7.55,5.45,14,9.54,20.49,13.41C803.78,478.36,813.41,471.35,823.11,467.3Z"/><path class="cls-32" d="M772.72,638.23c-2-4.76-9.19-19-12.06-22.18s-10.16-1.84-10.16-1.84l8.76,19.73,11,6.07Z"/><path class="cls-15" d="M772.72,638.23c-13.16,3.39-12-15.58-22.22-24-4.39,2.17-5.94,7.54-5.57,9.35,1.27,3,2.38,22.38,2.38,22.38h1.31s-.33-16,.94-16.4,2.6.91,2.72,1c4,6,5.21,12.78,10.6,15.28,2.9,1.35,20.33-.25,20.25-2.62S779.52,642.08,772.72,638.23Z"/><path class="cls-32" d="M584,504.2c4.69-2.2,18.73-9.8,21.77-12.77s1.51-10.21,1.51-10.21l-19.43,9.39-5.71,11.2Z"/><path class="cls-15" d="M584,504.2c-3.81-13,15.18-12.51,23.29-23-2.31-4.31-7.73-5.7-9.52-5.27-3,1.37-22.29,3.1-22.29,3.1v1.31s15.93-.84,16.42.41-.83,2.63-.94,2.76c-5.86,4.15-12.6,5.63-14.93,11.09-1.26,2.94.9,20.31,3.28,20.15S580.41,511.13,584,504.2Z"/><path class="cls-40" d="M743.69,379C722,367,754,329.16,791.1,323.64S743.69,379,743.69,379Z"/><rect class="cls-19" x="715.58" y="364.78" width="71.36" height="48.54" transform="translate(-77.49 218.96) rotate(-15.78)"/><rect class="cls-15" x="717.89" y="366.21" width="71.36" height="48.54" transform="translate(-77.79 219.65) rotate(-15.78)"/><path class="cls-1" d="M729.31,403c-29,6.58-23.29,47.14-35.71,55.09,24.85,24.85,100.92,27.14,129.52,9.17-22.22-26.25-41.27-41.58-41.27-41.58l-26.13-15.9Z"/><path class="cls-16" d="M759.41,484.6h-2.87c-19.34-.41-48.07-5.08-75.12-25.06a1.25,1.25,0,0,1,1.35-2.1l.14.1c43.9,32.42,104.23,29.83,137.2,8.58a1.25,1.25,0,0,1,1.46,2l-.11.07C805.17,478.71,782.7,484.6,759.41,484.6Z"/><path class="cls-3" d="M800.44,322.6c9.41,3.62,29.09,8.49,27.68,36.41-1.52,30.19-46.27,66.7-46.27,66.7-15-9.94-47.71-12.21-52.54-22.72C729.31,403,778.55,314.18,800.44,322.6Z"/><path class="cls-40" d="M802.78,353.19c-1.56,9-6,31.24.11,52.2a150.26,150.26,0,0,0,14.81-19.06Z"/><path class="cls-3" d="M809.39,341.88c16.75-5.09,32.94,45.82,32.94,45.82l33.36-25c-.35,4.41,12.12,2.52,12.12,2.52s-29.49,54.5-49.64,57.13C823.72,424.23,788.19,348.31,809.39,341.88Z"/><path class="cls-16" d="M780.78,425.13a1.25,1.25,0,0,1-.54-.12c-4.39-2.1-12.51-3.51-21.11-5-14.46-2.51-28.12-4.88-30.91-11q-1.3-2.88.74-6.25a1.25,1.25,0,0,1,2.13,1.3,4.07,4.07,0,0,0-.6,3.92c2.24,4.94,16.49,7.41,29.06,9.6,8.77,1.52,17.06,3,21.76,5.21a1.25,1.25,0,0,1-.54,2.38Z"/><path class="cls-39" d="M881.41,357.53l.68-.16a1.15,1.15,0,0,0,.33-.09l.17-.08.21-.07c.09,0,.2-.12.31-.18l.36-.21.37-.29a7.84,7.84,0,0,0,.79-.71c.25-.29.53-.58.78-.93a10.75,10.75,0,0,0,.72-1.08c.24-.37.42-.78.63-1.17a8.29,8.29,0,0,0,.51-1.2,11.6,11.6,0,0,0,.38-1.15c.12-.37.18-.72.26-1a5.6,5.6,0,0,0,.13-.86v-1.41a1.66,1.66,0,0,1,3.29-.33l.14.9v1a8.52,8.52,0,0,1-.06,1.2c-.06.43-.09.9-.19,1.37a15.25,15.25,0,0,1-.33,1.49c-.12.52-.31,1-.48,1.56a9.43,9.43,0,0,1-.65,1.57,15,15,0,0,1-.81,1.53,16.75,16.75,0,0,1-1,1.43,12.49,12.49,0,0,1-1.11,1.25l-.58.55c-.2.17-.42.32-.61.47a5.33,5.33,0,0,1-.6.42l-.68.36-.61.29-.37.14-.66.23a2.5,2.5,0,1,1-1.67-4.72h0Z"/><path class="cls-40" d="M843,395.33a1.25,1.25,0,0,1-1.25-1.25c0-8.93-10.21-39.25-23-48.75-3.17-2.35-6.21-3.11-9-2.26a1.25,1.25,0,0,1-.73-2.39c3.61-1.09,7.39-.21,11.23,2.64,13.63,10.11,24,41.21,24,50.76A1.25,1.25,0,0,1,843,395.33Z"/><path class="cls-40" d="M848,400.87a1.25,1.25,0,0,1-1.24-1.16c-.4-6.09-3.61-10.2-5-11.13a1.25,1.25,0,0,1,1.39-2.08h0c2.13,1.42,5.68,6.22,6.13,13a1.25,1.25,0,0,1-1.16,1.33H848Z"/><path class="cls-16" d="M693.59,458.13c15.92,15.92,52.87,22.58,84.89,20.58C750,461,709.1,429.39,729.31,403,700.34,409.61,706,450.17,693.59,458.13Z"/></g></svg>